<?xml version="1.0" encoding="utf-8"?>
<!-- Generator: Adobe Illustrator 16.0.0, SVG Export Plug-In . SVG Version: 6.00 Build 0)  -->
<!DOCTYPE svg PUBLIC "-//W3C//DTD SVG 1.1//EN" "http://www.w3.org/Graphics/SVG/1.1/DTD/svg11.dtd">
<svg version="1.1" id="Layer_1" xmlns="http://www.w3.org/2000/svg" xmlns:xlink="http://www.w3.org/1999/xlink" x="0px" y="0px"
	 width="68px" height="64px" viewBox="0 0 68 64" enable-background="new 0 0 68 64" xml:space="preserve">
<path fill="none" stroke="#1E73BE" stroke-width="3" stroke-linecap="round" stroke-linejoin="round" d="M58.015,13.987H9.982
	c-3.316,0-6.004,2.688-6.004,6.005v24.017c0,3.314,2.688,6.004,6.004,6.004h48.033c3.316,0,6.006-2.689,6.006-6.004V19.992
	C64.021,16.676,61.33,13.987,58.015,13.987z"/>
<path fill="none" stroke="#1E9754" stroke-width="3" stroke-linecap="round" stroke-linejoin="round" d="M34.001,38.006
	c3.314,0,6.003-2.691,6.003-6.006c0-3.315-2.688-6.005-6.003-6.005c-3.315,0-6.005,2.689-6.005,6.005
	C27.996,35.314,30.686,38.006,34.001,38.006z"/>
<path fill="none" stroke="#1E9754" stroke-width="3" stroke-linecap="round" stroke-linejoin="round" d="M15.972,32h0.029
	 M51.998,32h0.029"/>
</svg>
