<svg width="103" height="84" viewBox="0 0 103 84" fill="none" xmlns="http://www.w3.org/2000/svg">
<g clip-path="url(#clip0_540_1389)">
<path d="M30.1906 79.1582C30.5837 79.532 31.0664 79.7982 31.5921 79.9311C32.1178 80.064 32.6688 80.0591 33.192 79.9169C34.5331 79.5358 35.4433 78.3246 36.2511 77.1871L38.6414 73.8235L36.627 74.1934C35.1782 74.4592 33.6937 74.7384 32.4321 75.4993C31.1704 76.2603 30.1599 77.6186 30.2398 79.0909" fill="#E6E6E6"/>
<path d="M28.3182 83.6893C28.6714 82.4834 29.0268 81.2611 29.6505 80.162C30.2045 79.186 30.9614 78.3296 31.96 77.7972C32.4897 77.5153 33.0645 77.3282 33.6584 77.2441C33.8133 77.2222 33.8385 77.4635 33.6844 77.4854C32.656 77.6325 31.701 78.1027 30.9568 78.8282C30.1319 79.6362 29.5908 80.6779 29.1907 81.75C28.9485 82.3983 28.7531 83.0623 28.5586 83.7264C28.5528 83.7578 28.5352 83.7858 28.5095 83.8047C28.4838 83.8236 28.4518 83.8319 28.4202 83.8279C28.3885 83.8229 28.36 83.8055 28.341 83.7796C28.322 83.7536 28.314 83.7212 28.3187 83.6894L28.3182 83.6893Z" fill="#F2F2F2"/>
<path d="M67.2182 35.1221C67.4478 35.0667 67.6867 35.0624 67.9182 35.1094C68.1496 35.1565 68.368 35.2538 68.5578 35.3944C68.7476 35.5351 68.9043 35.7157 69.0169 35.9235C69.1295 36.1314 69.1951 36.3614 69.2093 36.5974L74.7359 38.1527L72.4809 40.1078L67.5784 38.3312C67.1808 38.3287 66.7979 38.1803 66.5023 37.9141C66.2067 37.6479 66.0189 37.2824 65.9745 36.8868C65.9301 36.4912 66.0322 36.0931 66.2614 35.7679C66.4906 35.4426 66.8311 35.2129 67.2182 35.1221L67.2182 35.1221Z" fill="#FFB7B7"/>
<path d="M81.42 82.2308L79.809 82.2306L79.0426 76.0104L81.4203 76.0106L81.42 82.2308Z" fill="#FFB7B7"/>
<path d="M81.8308 83.794L76.6365 83.7938V83.728C76.6365 83.1912 76.8495 82.6765 77.2287 82.2969C77.6078 81.9174 78.1221 81.7041 78.6582 81.7041H78.6584L81.8309 81.7042L81.8308 83.794Z" fill="#2F2E41"/>
<path d="M90.8595 82.2308L89.2485 82.2306L88.4821 76.0104L90.8596 76.0106L90.8595 82.2308Z" fill="#FFB7B7"/>
<path d="M91.2703 83.794L86.076 83.7938V83.728C86.076 83.1912 86.289 82.6765 86.6682 82.2969C87.0473 81.9174 87.5615 81.7041 88.0977 81.7041H88.0979L91.2704 81.7042L91.2703 83.794Z" fill="#2F2E41"/>
<path d="M80.1037 46.5295L77.7308 62.9837L78.322 80.3199L81.8853 80.604L82.9996 65.0567L85.8361 56.3876L87.5037 68.7454L87.5722 80.3199L91.2517 80.604L92.535 56.27L91.5911 45.6873L80.1037 46.5295Z" fill="#2F2E41"/>
<path d="M86.9671 24.4994C89.0403 24.4994 90.721 22.8169 90.721 20.7414C90.721 18.666 89.0403 16.9835 86.9671 16.9835C84.8938 16.9835 83.2131 18.666 83.2131 20.7414C83.2131 22.8169 84.8938 24.4994 86.9671 24.4994Z" fill="#FFB7B7"/>
<path d="M84.6532 26.5435L80.509 47.4443C80.509 47.4443 87.4864 49.449 90.5431 47.5983C93.5998 45.7476 92.2301 40.0343 92.2301 40.0343L91.6702 30.3128L90.6357 27.8544L89.758 25.825L84.6532 26.5435Z" fill="#CBCBCB"/>
<path d="M83.4402 41.3794L84.8718 26.1378L83.7269 26.9745L79.7238 28.276L79.4498 39.0067L76.6496 53.1178C76.6496 53.1178 78.6511 57.0276 81.1317 50.5592L83.4402 41.3794Z" fill="#2F2E41"/>
<path d="M81.6503 29.8809L79.7238 28.2759L75.3939 37.6919L70.5622 36.6324L70.3339 39.4891L77.3345 42.2625L82.105 35.6139L81.6503 29.8809Z" fill="#2F2E41"/>
<path d="M89.1451 38.0432L89.6846 25.6386L91.6702 27.1779L95.2163 28.1674L94.6964 38.0432L95.4446 53.3674L91.7269 54.5461L90.6833 44.8765L89.1451 38.0432Z" fill="#2F2E41"/>
<path d="M89.3837 48.0288C89.4253 47.7961 89.5173 47.5753 89.6534 47.3821C89.7894 47.1888 89.9661 47.0278 90.1711 46.9103C90.376 46.7928 90.6042 46.7217 90.8395 46.702C91.0749 46.6824 91.3117 46.7146 91.5332 46.7965L95.1767 42.3552L96.059 45.2081L92.4638 48.9882C92.3018 49.3517 92.0122 49.643 91.6499 49.807C91.2876 49.9711 90.8778 49.9963 90.4981 49.8781C90.1184 49.7598 89.7953 49.5063 89.5899 49.1654C89.3845 48.8246 89.3111 48.4202 89.3837 48.0288V48.0288Z" fill="#FFB7B7"/>
<path d="M92.8422 29.5443L95.2163 28.1674L101.19 39.9772L95.3659 48.0736L92.0439 45.4146L96.0777 40.1486L92.4012 34.4924L92.8422 29.5443Z" fill="#2F2E41"/>
<path d="M90.4977 17.7371L90.6797 17.3704L89.764 16.915C89.764 16.915 88.7538 15.2695 86.9258 15.7319C85.0978 16.1943 84.2754 16.4711 84.2754 16.4711L83.362 16.9312L83.8204 17.3878L82.998 17.6645L83.5474 17.9378L82.9082 18.3056L83.2523 20.1913C83.2523 20.1913 83.8239 18.7611 84.9227 19.3077C86.0216 19.8542 88.0316 19.0251 88.0316 19.0251L89.7778 22.4083C89.7778 22.4083 90.1381 21.2223 90.7804 21.5385C90.7804 21.5385 92.4213 18.9225 90.4977 17.7371Z" fill="#2F2E41"/>
<path d="M67.6951 23.2505H67.6711L53.9043 29.1354L35.0684 37.1871C34.9948 37.2181 34.9158 37.2342 34.8359 37.2346C34.7561 37.2351 34.677 37.2197 34.603 37.1895L15.17 29.1186L1.06491 23.2601L1.04336 23.2505H1.01935C0.796793 23.2508 0.583424 23.3394 0.426054 23.497C0.268683 23.6545 0.180164 23.8681 0.179916 24.0909V60.5859C0.180165 60.8087 0.268683 61.0223 0.426054 61.1798C0.583424 61.3374 0.796793 61.426 1.01935 61.4262H67.6951C67.9176 61.426 68.131 61.3374 68.2884 61.1798C68.4458 61.0223 68.5343 60.8087 68.5345 60.5859V24.0909C68.5343 23.8681 68.4458 23.6545 68.2884 23.497C68.131 23.3394 67.9176 23.2508 67.6951 23.2505Z" fill="white"/>
<path d="M67.7549 23.4906C67.7305 23.4906 67.7066 23.4831 67.6865 23.4691L34.5214 0.347188C34.4205 0.27715 34.3006 0.23972 34.1778 0.239929C34.055 0.240139 33.9352 0.277977 33.8345 0.34836L0.908311 23.4689C0.882266 23.4871 0.850055 23.4943 0.818753 23.4887C0.787451 23.4832 0.759618 23.4655 0.741367 23.4394C0.723115 23.4134 0.715939 23.3811 0.721412 23.3498C0.726886 23.3185 0.744562 23.2906 0.770559 23.2723L33.6967 0.151763C33.8377 0.0532448 34.0055 0.000283986 34.1774 1.13889e-06C34.3493 -0.000281708 34.5172 0.0521265 34.6585 0.150181L67.8236 23.272C67.8445 23.2867 67.8603 23.3076 67.8685 23.3318C67.8767 23.356 67.8771 23.3822 67.8694 23.4066C67.8617 23.4309 67.8465 23.4522 67.8259 23.4674C67.8053 23.4825 67.7805 23.4906 67.7549 23.4906L67.7549 23.4906Z" fill="#3F3D56"/>
<path d="M2.78976 24.3103L34.2103 0.998718L65.8694 25.969L35.8292 43.7962L19.5201 40.0748L2.78976 24.3103Z" fill="#E6E6E6"/>
<path d="M20.8968 54.8074H5.37425C5.27893 54.8077 5.1845 54.7892 5.09634 54.7529C5.00819 54.7166 4.92805 54.6632 4.8605 54.5959C4.79296 54.5286 4.73933 54.4486 4.70269 54.3605C4.66606 54.2724 4.64713 54.1779 4.64699 54.0825C4.64685 53.9871 4.6655 53.8926 4.70188 53.8044C4.73825 53.7162 4.79164 53.636 4.85899 53.5685C4.92634 53.501 5.00632 53.4474 5.09437 53.4109C5.18241 53.3743 5.27679 53.3555 5.37211 53.3555H20.8968C20.9921 53.3552 21.0865 53.3737 21.1747 53.41C21.2629 53.4463 21.343 53.4997 21.4105 53.567C21.4781 53.6343 21.5317 53.7143 21.5683 53.8024C21.605 53.8905 21.6239 53.985 21.6241 54.0804C21.6242 54.1758 21.6055 54.2703 21.5692 54.3585C21.5328 54.4467 21.4794 54.5269 21.412 54.5944C21.3447 54.6619 21.2647 54.7155 21.1767 54.752C21.0886 54.7886 20.9942 54.8074 20.8989 54.8074H20.8968Z" fill="#1E73BE"/>
<path d="M10.9434 51.6862H5.37425C5.27893 51.6864 5.1845 51.6679 5.09634 51.6316C5.00819 51.5953 4.92805 51.542 4.8605 51.4746C4.79296 51.4073 4.73934 51.3273 4.7027 51.2392C4.66606 51.1511 4.64713 51.0567 4.64699 50.9612C4.64685 50.8658 4.6655 50.7713 4.70188 50.6831C4.73825 50.5949 4.79164 50.5148 4.85899 50.4472C4.92634 50.3797 5.00632 50.3261 5.09437 50.2896C5.18242 50.253 5.27679 50.2342 5.37211 50.2342H10.9434C11.1356 50.2342 11.3199 50.3105 11.4559 50.4464C11.5919 50.5823 11.6684 50.7667 11.6687 50.9591C11.669 51.1515 11.593 51.3361 11.4574 51.4724C11.3218 51.6087 11.1377 51.6856 10.9455 51.6862H10.9434Z" fill="#1E73BE"/>
<path d="M34.6522 37.2944C34.5342 37.2946 34.4174 37.2716 34.3081 37.227L14.9301 29.1778V3.98256C14.9304 3.75977 15.0189 3.54617 15.1763 3.38863C15.3336 3.2311 15.547 3.14247 15.7695 3.14221H52.9449C53.1674 3.14247 53.3808 3.2311 53.5382 3.38863C53.6955 3.54617 53.7841 3.75977 53.7843 3.98256V29.1954L53.7479 29.211L35.0067 37.223C34.8945 37.2702 34.7739 37.2945 34.6522 37.2944Z" fill="#1E73BE"/>
<path d="M67.5152 23.2505H67.4912L53.7243 29.1354L34.8885 37.1871C34.8149 37.2181 34.7359 37.2342 34.656 37.2346C34.5762 37.2351 34.497 37.2197 34.4231 37.1895L14.9901 29.1186L0.885002 23.2601L0.863458 23.2505H0.839433C0.616876 23.2508 0.403508 23.3394 0.246137 23.497C0.0887669 23.6545 0.000247512 23.8681 0 24.0909V60.5859C0.000247513 60.8087 0.0887668 61.0223 0.246137 61.1798C0.403508 61.3374 0.616876 61.426 0.839433 61.4262H67.5152C67.7377 61.426 67.9511 61.3374 68.1085 61.1798C68.2658 61.0223 68.3544 60.8087 68.3546 60.5859V24.0909C68.3544 23.8681 68.2658 23.6545 68.1085 23.497C67.9511 23.3394 67.7377 23.2508 67.5152 23.2505ZM68.1148 60.5859C68.1147 60.7451 68.0515 60.8977 67.9391 61.0103C67.8267 61.1228 67.6742 61.1861 67.5152 61.1861H0.839433C0.680427 61.1861 0.527953 61.1228 0.415518 61.0103C0.303084 60.8977 0.23989 60.7451 0.239827 60.5859V24.0909C0.240044 23.9357 0.30019 23.7865 0.407689 23.6747C0.515189 23.5628 0.661721 23.4969 0.816653 23.4906L14.9901 29.3779L34.3308 37.4116C34.5402 37.4968 34.7748 37.4955 34.9832 37.408L53.7243 29.3959L67.5392 23.4906C67.6938 23.4973 67.84 23.5635 67.9472 23.6753C68.0544 23.7871 68.1144 23.9359 68.1148 24.0909L68.1148 60.5859Z" fill="#3F3D56"/>
<path d="M31.6354 12.5603H18.4441C18.19 12.5599 17.9464 12.4585 17.7669 12.2784C17.5873 12.0984 17.4865 11.8543 17.4865 11.5999C17.4865 11.3455 17.5873 11.1015 17.7669 10.9214C17.9464 10.7414 18.19 10.64 18.4441 10.6395H31.6354C31.8895 10.64 32.1331 10.7414 32.3127 10.9214C32.4922 11.1015 32.5931 11.3455 32.5931 11.5999C32.5931 11.8543 32.4922 12.0984 32.3127 12.2784C32.1331 12.4585 31.8895 12.5599 31.6354 12.5603Z" fill="white"/>
<path d="M24.7999 8.47865H18.4441C18.1897 8.47865 17.9457 8.37747 17.7658 8.19736C17.5858 8.01725 17.4848 7.77297 17.4848 7.51826C17.4848 7.26354 17.5858 7.01926 17.7658 6.83915C17.9457 6.65905 18.1897 6.55786 18.4441 6.55786H24.7999C25.0544 6.55786 25.2984 6.65905 25.4783 6.83915C25.6582 7.01926 25.7593 7.26354 25.7593 7.51826C25.7593 7.77297 25.6582 8.01725 25.4783 8.19736C25.2984 8.37747 25.0544 8.47865 24.7999 8.47865Z" fill="white"/>
<path d="M44.2233 22.1643H24.0766C23.8222 22.1643 23.5782 22.0631 23.3983 21.883C23.2183 21.7029 23.1173 21.4586 23.1173 21.2039C23.1173 20.9491 23.2183 20.7049 23.3983 20.5248C23.5782 20.3447 23.8222 20.2435 24.0766 20.2435H44.2233C44.4777 20.2435 44.7217 20.3447 44.9016 20.5248C45.0816 20.7049 45.1826 20.9491 45.1826 21.2039C45.1826 21.4586 45.0816 21.7029 44.9016 21.883C44.7217 22.0631 44.4777 22.1643 44.2233 22.1643Z" fill="white"/>
<path d="M44.2232 26.6061H24.0766C23.9505 26.6063 23.8256 26.5816 23.709 26.5335C23.5924 26.4853 23.4864 26.4146 23.3972 26.3254C23.3079 26.2362 23.2371 26.1302 23.1888 26.0136C23.1404 25.897 23.1156 25.772 23.1156 25.6457C23.1156 25.5194 23.1404 25.3944 23.1888 25.2778C23.2371 25.1612 23.3079 25.0552 23.3972 24.966C23.4864 24.8768 23.5924 24.8061 23.709 24.7579C23.8256 24.7098 23.9505 24.6851 24.0766 24.6853H44.2232C44.3494 24.6851 44.4743 24.7098 44.5909 24.7579C44.7075 24.8061 44.8134 24.8768 44.9027 24.966C44.992 25.0552 45.0628 25.1612 45.1111 25.2778C45.1594 25.3944 45.1843 25.5194 45.1843 25.6457C45.1843 25.772 45.1594 25.897 45.1111 26.0136C45.0628 26.1302 44.992 26.2362 44.9027 26.3254C44.8134 26.4146 44.7075 26.4853 44.5909 26.5335C44.4743 26.5816 44.3494 26.6063 44.2232 26.6061Z" fill="white"/>
<path d="M102.854 83.9457H64.365C64.3262 83.9457 64.2889 83.9303 64.2615 83.9028C64.234 83.8753 64.2186 83.8381 64.2186 83.7992C64.2186 83.7604 64.234 83.7231 64.2615 83.6956C64.2889 83.6681 64.3262 83.6527 64.365 83.6527H102.854C102.892 83.6527 102.93 83.6681 102.957 83.6956C102.985 83.7231 103 83.7604 103 83.7992C103 83.8381 102.985 83.8753 102.957 83.9028C102.93 83.9303 102.892 83.9457 102.854 83.9457Z" fill="#CBCBCB"/>
<path d="M35.6814 83.9457H21.4859C21.4471 83.9457 21.4099 83.9303 21.3825 83.9028C21.355 83.8753 21.3396 83.8381 21.3396 83.7992C21.3396 83.7604 21.355 83.7231 21.3825 83.6956C21.4099 83.6681 21.4471 83.6527 21.4859 83.6527H35.6814C35.7202 83.6527 35.7574 83.6681 35.7849 83.6956C35.8123 83.7231 35.8277 83.7604 35.8277 83.7992C35.8277 83.8381 35.8123 83.8753 35.7849 83.9028C35.7574 83.9303 35.7202 83.9457 35.6814 83.9457Z" fill="#CBCBCB"/>
<path d="M26.7056 79.4162C27.2476 79.4037 27.7773 79.2517 28.2437 78.9748C28.71 78.6979 29.0973 78.3055 29.3681 77.8353C30.0506 76.6183 29.8427 75.117 29.6142 73.7403L28.9397 69.668L27.7719 71.3523C26.932 72.5635 26.076 73.8094 25.7175 75.2395C25.3589 76.6697 25.5993 78.3462 26.693 79.3336" fill="#E6E6E6"/>
<path d="M28.5697 83.9507C27.9707 82.8463 27.3616 81.7287 27.0297 80.5091C26.735 79.426 26.6684 78.2845 27.0014 77.202C27.1784 76.6283 27.4541 76.0899 27.816 75.611C27.9104 75.4861 28.0983 75.6394 28.0044 75.7638C27.3789 76.594 27.0329 77.6016 27.0163 78.6413C27.0006 79.7965 27.3507 80.9171 27.8223 81.9597C28.1072 82.5903 28.4364 83.1992 28.7662 83.8073C28.7843 83.8336 28.7915 83.8659 28.7866 83.8974C28.7817 83.929 28.7649 83.9574 28.7396 83.977C28.7136 83.9958 28.6812 84.0035 28.6494 83.9985C28.6177 83.9936 28.5892 83.9762 28.5701 83.9504L28.5697 83.9507Z" fill="#F2F2F2"/>
</g>
<defs>
<clipPath id="clip0_540_1389">
<rect width="103" height="84" fill="white"/>
</clipPath>
</defs>
</svg>
