<?xml version="1.0" encoding="utf-8"?>
<!-- Generator: Adobe Illustrator 16.0.0, SVG Export Plug-In . SVG Version: 6.00 Build 0)  -->
<!DOCTYPE svg PUBLIC "-//W3C//DTD SVG 1.1//EN" "http://www.w3.org/Graphics/SVG/1.1/DTD/svg11.dtd">
<svg version="1.1" id="Layer_1" xmlns="http://www.w3.org/2000/svg" xmlns:xlink="http://www.w3.org/1999/xlink" x="0px" y="0px"
	 width="68px" height="64px" viewBox="0 0 68 64" enable-background="new 0 0 68 64" xml:space="preserve">
<path fill="none" stroke="#1E73BE" stroke-width="3" stroke-linecap="round" stroke-linejoin="round" d="M56.393,32.084V18.563
	H13.525c-1.625,0-3.182-0.713-4.331-1.98c-1.148-1.268-1.794-2.988-1.794-4.781c0-3.718,2.756-6.76,6.125-6.76H50.27v13.521"/>
<path fill="none" stroke="#1E73BE" stroke-width="3" stroke-linecap="round" stroke-linejoin="round" d="M7.401,11.802v40.564
	c0,3.719,2.756,6.761,6.125,6.761h42.867V45.604"/>
<path fill="none" stroke="#1E9754" stroke-width="3" stroke-linecap="round" stroke-linejoin="round" d="M49.918,32.084
	c-1.621,0-3.184,0.712-4.331,1.981c-1.147,1.268-1.792,2.985-1.792,4.78c0,3.716,2.753,6.759,6.123,6.759h12.248v-13.52H49.918z"/>
</svg>
