<?xml version="1.0" encoding="utf-8"?>
<!-- Generator: Adobe Illustrator 16.0.0, SVG Export Plug-In . SVG Version: 6.00 Build 0)  -->
<!DOCTYPE svg PUBLIC "-//W3C//DTD SVG 1.1//EN" "http://www.w3.org/Graphics/SVG/1.1/DTD/svg11.dtd">
<svg version="1.1" id="Layer_1" xmlns="http://www.w3.org/2000/svg" xmlns:xlink="http://www.w3.org/1999/xlink" x="0px" y="0px"
	 width="68px" height="64px" viewBox="0 0 68 64" enable-background="new 0 0 68 64" xml:space="preserve">
<g>
	<path fill="none" stroke="#1E73BE" stroke-width="3" d="M23.709,2.573c5.313,1.28,7.971,1.28,13.283,0
		c0.659-0.159,2.065-0.159,4.22,0c0.949,0,1.719,0.727,1.719,1.625c0,0.254-0.063,0.506-0.186,0.733l-5.81,10.834
		c9.622,7.172,14.401,16.402,14.337,27.69C51.241,48.791,48.937,62.5,30.251,62.5S9.184,51.322,9.23,43.456
		c0.065-11.082,4.829-20.292,14.293-27.628l-5.77-10.904c-0.424-0.802-0.08-1.778,0.769-2.178c0.239-0.113,0.502-0.172,0.769-0.172
		C21.484,2.392,22.957,2.392,23.709,2.573z"/>
	<path fill="#1E73BE" d="M28.917,15.452c0-0.921-0.747-1.668-1.668-1.668s-1.669,0.747-1.669,1.668v5.673
		c0,0.921,0.748,1.668,1.669,1.668s1.668-0.747,1.668-1.668V15.452z"/>
	<path fill="#1E73BE" d="M39.16,12.783H21.476c-0.921,0-1.668,0.747-1.668,1.668s0.747,1.669,1.668,1.669H39.16
		c0.922,0,1.669-0.748,1.669-1.669S40.082,12.783,39.16,12.783z"/>
	<path fill="#FFFFFF" stroke="#1E9754" stroke-width="3" d="M53.509,53.49H43.164c-2.211,0-4.004,1.793-4.004,4.006
		c0,2.211,1.793,4.004,4.004,4.004h10.345c2.211,0,4.004-1.793,4.004-4.004C57.513,55.283,55.72,53.49,53.509,53.49z"/>
	<path fill="#FFFFFF" stroke="#1E9754" stroke-width="3" d="M49.271,45.483H38.926c-2.211,0-4.004,1.793-4.004,4.003
		c0,2.213,1.793,4.004,4.004,4.004h10.345c2.212,0,4.005-1.791,4.005-4.004C53.275,47.276,51.482,45.483,49.271,45.483z"/>
	<path fill="#FFFFFF" stroke="#1E9754" stroke-width="3" d="M53.607,37.476H43.265c-2.212,0-4.005,1.791-4.005,4.004
		c0,2.21,1.793,4.004,4.005,4.004h10.343c2.213,0,4.005-1.794,4.005-4.004C57.612,39.267,55.82,37.476,53.607,37.476z"/>
</g>
</svg>
