<svg width="49" height="50" viewBox="0 0 49 50" fill="none" xmlns="http://www.w3.org/2000/svg">
<g clip-path="url(#clip0_607_304)">
<path d="M35.9769 48.1427L32.9281 46.2604L36.8994 47.3602C39.3942 45.0548 41.2218 41.8608 41.2218 41.8608C41.2218 41.8608 34.5398 37.9142 30.4237 38.9674C26.3077 40.0205 25.5178 42.755 26.3162 45.6746C27.1147 48.5942 29.1992 50.5933 33.3152 49.5401C34.2314 49.3057 35.1312 48.7948 35.9769 48.1427Z" fill="#F2F2F2"/>
<path d="M32.6248 45.6533L32.422 45.7052C30.0605 46.297 28.1152 46.3831 26.6131 45.9597C26.5911 45.9539 26.5698 45.9469 26.5478 45.9411L26.5779 45.8429L26.6081 45.749C28.2363 46.2284 30.2949 46.0187 32.3548 45.5031C32.4214 45.4871 32.489 45.4708 32.556 45.4526C33.426 45.2269 34.2928 44.95 35.1259 44.6485C35.1906 44.6257 35.2561 44.6017 35.3215 44.5777C36.4191 44.1742 37.4526 43.733 38.3435 43.3242C38.4066 43.2956 38.4694 43.266 38.5313 43.2367C40.0362 42.5387 41.1027 41.9467 41.3382 41.8137C41.3672 41.798 41.3829 41.7887 41.3867 41.7867L41.439 41.8721L41.4403 41.8728L41.4929 41.9591C41.4892 41.9611 41.4365 41.9923 41.3374 42.0467C40.9681 42.2525 39.9623 42.7988 38.6106 43.4284C38.5495 43.4565 38.4866 43.4861 38.4235 43.5147C37.7009 43.8472 36.8882 44.1997 36.0255 44.5348C35.8089 44.6193 35.5946 44.7001 35.3825 44.7772C35.3174 44.8022 35.2519 44.8262 35.1872 44.849C34.2866 45.1751 33.4325 45.4432 32.6248 45.6533Z" fill="white"/>
<path d="M38.6106 43.4284C38.5837 43.3656 38.5566 43.3019 38.5312 43.2367C38.4621 43.0596 38.4023 42.8792 38.3523 42.6962C38.1379 41.9166 38.1071 41.1003 38.2622 40.3077C38.1978 40.2805 38.1334 40.2533 38.0677 40.2254C37.8966 41.0613 37.9252 41.924 38.1514 42.7476C38.2049 42.9429 38.269 43.1354 38.3435 43.3242C38.3686 43.3885 38.3957 43.4522 38.4235 43.5147C38.6501 44.0316 38.9566 44.5123 39.3324 44.9401C39.3762 44.8842 39.4193 44.8296 39.4617 44.7761C39.1109 44.3699 38.8241 43.9157 38.6106 43.4284V43.4284Z" fill="white"/>
<path d="M35.3825 44.7772C35.3602 44.7112 35.3398 44.6447 35.3215 44.5777C35.3149 44.5575 35.3091 44.5361 35.3035 44.5157C35.0723 43.6707 35.0559 42.7841 35.2556 41.9315C35.4552 41.079 35.8651 40.2858 36.4502 39.6195C36.3803 39.5959 36.3104 39.5721 36.2398 39.5497C35.6518 40.2385 35.242 41.0529 35.0442 41.9255C34.8464 42.798 34.8665 43.7036 35.1026 44.5671C35.11 44.5943 35.1175 44.6215 35.1259 44.6485C35.1455 44.7162 35.1659 44.7827 35.1872 44.849C35.5258 45.8722 36.162 46.7795 37.0196 47.4622C37.0703 47.416 37.1211 47.3697 37.1716 47.3225C36.3319 46.6605 35.7101 45.776 35.3825 44.7772V44.7772Z" fill="white"/>
<path d="M32.6248 45.6533C32.6002 45.5868 32.5776 45.5199 32.556 45.4526C32.533 45.3805 32.5111 45.3082 32.4912 45.2353C32.182 44.0994 32.2615 42.8972 32.7178 41.8087C33.1741 40.7201 33.9826 39.8038 35.0224 39.197C34.9291 39.1741 34.8368 39.1509 34.744 39.1299C33.7179 39.7765 32.9285 40.7194 32.488 41.8246C32.0476 42.9299 31.9784 44.1413 32.2903 45.2867C32.3102 45.3596 32.3311 45.4322 32.3548 45.5031C32.3757 45.5715 32.3983 45.6385 32.4219 45.7052C32.9087 47.0504 33.9058 48.1664 35.2112 48.8272C35.28 48.7878 35.3469 48.7457 35.4149 48.7034C34.1102 48.0763 33.1094 46.9822 32.6248 45.6533Z" fill="white"/>
<path d="M28.5908 49.6366L13.5136 43.7665C12.6101 43.4136 11.8882 42.7285 11.5063 41.8614C11.1244 40.9943 11.1137 40.0161 11.4765 39.1414L26.8382 2.22753C27.203 1.35362 27.9114 0.655386 28.8078 0.286004C29.7042 -0.0833776 30.7155 -0.0937383 31.6199 0.257195L46.6971 6.12727C47.6006 6.48019 48.3224 7.16534 48.7043 8.03242C49.0862 8.89949 49.0969 9.87768 48.7341 10.7524L33.3725 47.6663C33.0076 48.5402 32.2993 49.2384 31.4028 49.6078C30.5064 49.9772 29.4951 49.9875 28.5908 49.6366Z" fill="#3F3D56"/>
<path d="M46.1023 7.08533L44.4241 6.43193C44.2742 6.37375 44.1066 6.37546 43.9581 6.43666C43.8095 6.49787 43.6922 6.61358 43.6317 6.7584C43.5082 7.05449 43.2682 7.29107 42.9645 7.41622C42.6608 7.54136 42.3182 7.54484 42.0118 7.42589L33.8038 4.23023C33.4977 4.11072 33.2531 3.87862 33.1237 3.58486C32.9944 3.29111 32.9908 2.9597 33.1137 2.66338C33.1739 2.51845 33.1721 2.35635 33.1088 2.21267C33.0456 2.06899 32.9259 1.95547 32.7762 1.89701L31.2964 1.32087C30.6105 1.05481 29.8435 1.06273 29.1637 1.34287C28.4838 1.62301 27.9465 2.15252 27.6697 2.81527L12.4173 39.4668C12.1422 40.1302 12.1504 40.872 12.44 41.5297C12.7296 42.1873 13.2771 42.7069 13.9623 42.9747L28.7682 48.7391C29.4541 49.0052 30.221 48.9973 30.9009 48.7171C31.5808 48.437 32.118 47.9075 32.3948 47.2447L47.6473 10.5932C47.9224 9.92981 47.9142 9.18794 47.6246 8.53034C47.3349 7.87274 46.7875 7.35308 46.1023 7.08533V7.08533Z" fill="white"/>
<path d="M40.3611 5.70512L35.7306 3.90228C35.6867 3.8852 35.6517 3.85197 35.6331 3.8099C35.6146 3.76783 35.6141 3.72036 35.6318 3.67793C35.6494 3.63551 35.6838 3.6016 35.7273 3.58368C35.7708 3.56576 35.8198 3.56528 35.8637 3.58236L40.4943 5.3852C40.516 5.39365 40.5358 5.40616 40.5525 5.42201C40.5692 5.43786 40.5825 5.45674 40.5917 5.47758C40.6009 5.49841 40.6057 5.52079 40.606 5.54343C40.6062 5.56607 40.6018 5.58854 40.5931 5.60954C40.5843 5.63055 40.5714 5.64969 40.555 5.66586C40.5386 5.68203 40.5191 5.69492 40.4976 5.7038C40.476 5.71267 40.4529 5.71736 40.4295 5.71758C40.4061 5.71781 40.3828 5.71357 40.3611 5.70512V5.70512Z" fill="white"/>
<path d="M41.1553 5.96645C41.2341 5.96645 41.298 5.90468 41.298 5.8285C41.298 5.75231 41.2341 5.69055 41.1553 5.69055C41.0766 5.69055 41.0127 5.75231 41.0127 5.8285C41.0127 5.90468 41.0766 5.96645 41.1553 5.96645Z" fill="white"/>
<path d="M44.1811 22.0626C44.1022 22.0318 44.0392 21.972 44.0058 21.8963C43.9725 21.8206 43.9716 21.7352 44.0032 21.6588L46.3464 16.0282C46.3782 15.9519 46.4401 15.891 46.5183 15.8588C46.5966 15.8266 46.6849 15.8257 46.7638 15.8564C46.8427 15.8872 46.9057 15.9469 46.9391 16.0226C46.9725 16.0982 46.9734 16.1836 46.9418 16.26L44.5986 21.8906C44.5667 21.9669 44.5049 22.0278 44.4266 22.0601C44.3483 22.0923 44.2601 22.0933 44.1811 22.0626V22.0626Z" fill="#3F3D56"/>
<path d="M23.8836 9.32728C23.8047 9.29647 23.7417 9.23665 23.7083 9.16094C23.675 9.08524 23.6741 8.99983 23.7058 8.92346L24.2383 7.64377C24.254 7.60589 24.2772 7.57137 24.3067 7.5422C24.3362 7.51302 24.3714 7.48975 24.4102 7.47373C24.449 7.4577 24.4906 7.44924 24.5328 7.44881C24.575 7.44838 24.6169 7.45601 24.656 7.47124C24.6951 7.48648 24.7308 7.50903 24.7609 7.5376C24.791 7.56618 24.815 7.60022 24.8315 7.63777C24.848 7.67533 24.8567 7.71566 24.8571 7.75646C24.8574 7.79726 24.8495 7.83774 24.8336 7.87556L24.3011 9.15525C24.2693 9.23155 24.2074 9.29252 24.1291 9.32477C24.0509 9.35702 23.9626 9.35792 23.8836 9.32728V9.32728Z" fill="#3F3D56"/>
<path d="M22.8984 11.6947C22.8195 11.6639 22.7565 11.6041 22.7231 11.5284C22.6898 11.4527 22.6889 11.3673 22.7206 11.2909L23.2531 10.0112C23.2688 9.97331 23.292 9.93879 23.3215 9.9096C23.351 9.88042 23.3862 9.85714 23.425 9.84111C23.4638 9.82508 23.5054 9.81661 23.5476 9.81618C23.5898 9.81575 23.6317 9.82337 23.6708 9.83861C23.71 9.85385 23.7456 9.87641 23.7757 9.90499C23.8058 9.93357 23.8298 9.96761 23.8463 10.0052C23.8628 10.0427 23.8715 10.0831 23.8719 10.1239C23.8722 10.1647 23.8643 10.2052 23.8485 10.243L23.3159 11.5227C23.2841 11.599 23.2222 11.6599 23.1439 11.6922C23.0657 11.7245 22.9774 11.7254 22.8984 11.6947V11.6947Z" fill="#3F3D56"/>
<path d="M37.0457 17.1294L30.6407 14.6357C30.5094 14.5843 30.4046 14.4847 30.3491 14.3587C30.2936 14.2327 30.2919 14.0905 30.3444 13.9633L31.8816 10.2694C31.9348 10.1425 32.0378 10.0411 32.1681 9.9874C32.2983 9.93371 32.4453 9.93208 32.5768 9.98288L38.9817 12.4766C39.113 12.528 39.2178 12.6276 39.2733 12.7536C39.3288 12.8796 39.3305 13.0217 39.278 13.1489L37.7408 16.8428C37.6876 16.9698 37.5846 17.0711 37.4544 17.1248C37.3241 17.1785 37.1772 17.1802 37.0457 17.1294ZM32.4688 10.2427C32.4085 10.2195 32.3412 10.2203 32.2815 10.2449C32.2218 10.2695 32.1746 10.316 32.1502 10.3741L30.6131 14.0678C30.5891 14.1261 30.5898 14.1912 30.6153 14.249C30.6408 14.3067 30.6888 14.3524 30.7489 14.376L37.1534 16.8695C37.2137 16.8928 37.2811 16.892 37.3409 16.8674C37.4006 16.8428 37.4479 16.7963 37.4723 16.7381L39.0093 13.0445C39.0334 12.9862 39.0326 12.921 39.0071 12.8633C38.9817 12.8055 38.9336 12.7599 38.8735 12.7363L32.4688 10.2427Z" fill="#3F3D56"/>
<path d="M37.0836 14.7789L37.0833 14.7787L32.1391 12.8538C32.0701 12.8268 32.0115 12.7799 31.9711 12.7195C31.9307 12.6591 31.9105 12.5881 31.9132 12.5162L32.0066 10.2764C32.0089 10.2205 32.0251 10.1661 32.0537 10.1176C32.0823 10.069 32.1225 10.0279 32.171 9.99748C32.2195 9.96712 32.2748 9.94845 32.3322 9.94304C32.3897 9.93764 32.4477 9.94566 32.5013 9.96643L39.0446 12.5015C39.133 12.5358 39.2038 12.6025 39.2416 12.6871C39.2793 12.7717 39.281 12.8674 39.2461 12.9531L39.2675 12.9739L39.0624 13.1716L39.0623 13.1715L37.4728 14.7024C37.4228 14.7506 37.3593 14.7836 37.2901 14.7972C37.2209 14.8108 37.1491 14.8044 37.0836 14.7789V14.7789Z" fill="#3F3D56"/>
<path d="M33.3709 14.9418L31.172 14.0857C31.1178 14.0646 31.0745 14.0235 31.0517 13.9715C31.0288 13.9196 31.0282 13.861 31.05 13.8086C31.0718 13.7562 31.1142 13.7143 31.1679 13.6922C31.2216 13.67 31.2823 13.6694 31.3364 13.6905L33.5354 14.5466C33.5895 14.5677 33.6328 14.6088 33.6557 14.6607C33.6785 14.7127 33.6791 14.7713 33.6573 14.8237C33.6355 14.8761 33.5931 14.918 33.5394 14.9401C33.4857 14.9622 33.4251 14.9629 33.3709 14.9418V14.9418Z" fill="#3F3D56"/>
<path d="M34.7323 14.2331C35.0296 14.2331 35.2706 14 35.2706 13.7125C35.2706 13.4249 35.0296 13.1918 34.7323 13.1918C34.435 13.1918 34.194 13.4249 34.194 13.7125C34.194 14 34.435 14.2331 34.7323 14.2331Z" fill="white"/>
<path d="M27.4949 40.0799L21.0899 37.5862C20.9587 37.5347 20.8538 37.4351 20.7983 37.3091C20.7428 37.1831 20.7411 37.0409 20.7937 36.9138L22.3309 33.2199C22.3841 33.0929 22.487 32.9915 22.6173 32.9378C22.7476 32.8841 22.8945 32.8825 23.026 32.9333L29.431 35.427C29.5622 35.4784 29.667 35.578 29.7225 35.704C29.7781 35.83 29.7797 35.9721 29.7273 36.0993L28.19 39.7933C28.1368 39.9202 28.0338 40.0216 27.9036 40.0753C27.7733 40.129 27.6264 40.1306 27.4949 40.0799V40.0799ZM22.918 33.1932C22.8577 33.1699 22.7904 33.1707 22.7307 33.1953C22.671 33.2199 22.6238 33.2664 22.5994 33.3246L21.0623 37.0182C21.0383 37.0765 21.0391 37.1417 21.0645 37.1994C21.09 37.2572 21.138 37.3028 21.1982 37.3264L27.6027 39.8199C27.663 39.8432 27.7304 39.8425 27.7901 39.8178C27.8498 39.7932 27.8971 39.7467 27.9215 39.6885L29.4586 35.9949C29.4826 35.9366 29.4818 35.8715 29.4564 35.8137C29.4309 35.756 29.3828 35.7103 29.3227 35.6868L22.918 33.1932Z" fill="#3F3D56"/>
<path d="M27.5329 37.7293L27.5325 37.7292L22.5883 35.8042C22.5194 35.7772 22.4607 35.7303 22.4203 35.6699C22.3799 35.6095 22.3597 35.5385 22.3625 35.4666L22.4558 33.2268C22.4581 33.171 22.4743 33.1165 22.5029 33.068C22.5315 33.0195 22.5717 32.9783 22.6202 32.9479C22.6687 32.9176 22.724 32.8989 22.7815 32.8935C22.8389 32.8881 22.8969 32.8961 22.9505 32.9169L29.4938 35.4519C29.5822 35.4862 29.653 35.5529 29.6908 35.6376C29.7286 35.7222 29.7302 35.8178 29.6953 35.9036L29.7167 35.9244L29.5116 36.122L29.5116 36.122L27.922 37.6528C27.872 37.7011 27.8085 37.7341 27.7393 37.7477C27.6701 37.7613 27.5983 37.7549 27.5329 37.7293Z" fill="#3F3D56"/>
<path d="M23.8201 37.8922L21.6212 37.0361C21.567 37.015 21.5238 36.9739 21.5009 36.922C21.478 36.87 21.4774 36.8114 21.4992 36.759C21.521 36.7066 21.5635 36.6648 21.6172 36.6426C21.6709 36.6205 21.7315 36.6199 21.7856 36.6409L23.9846 37.497C24.0114 37.5075 24.0359 37.5229 24.0565 37.5425C24.0772 37.5621 24.0936 37.5854 24.105 37.6112C24.1163 37.6369 24.1223 37.6645 24.1226 37.6925C24.1229 37.7205 24.1175 37.7482 24.1067 37.7742C24.0959 37.8001 24.0799 37.8238 24.0596 37.8437C24.0394 37.8637 24.0153 37.8796 23.9887 37.8906C23.9621 37.9016 23.9335 37.9074 23.9046 37.9076C23.8757 37.9079 23.847 37.9027 23.8201 37.8922V37.8922Z" fill="#3F3D56"/>
<path d="M25.1815 37.1836C25.4788 37.1836 25.7198 36.9505 25.7198 36.663C25.7198 36.3754 25.4788 36.1423 25.1815 36.1423C24.8842 36.1423 24.6432 36.3754 24.6432 36.663C24.6432 36.9505 24.8842 37.1836 25.1815 37.1836Z" fill="white"/>
<path d="M30.0323 30.7249C33.284 30.7249 35.92 28.1752 35.92 25.03C35.92 21.8848 33.284 19.3351 30.0323 19.3351C26.7806 19.3351 24.1446 21.8848 24.1446 25.03C24.1446 28.1752 26.7806 30.7249 30.0323 30.7249Z" fill="#1E73BE"/>
<path d="M32.2667 28.6033L25.8617 26.1096C25.7305 26.0582 25.6257 25.9585 25.5702 25.8325C25.5147 25.7065 25.513 25.5644 25.5655 25.4372L27.1027 21.7433C27.1559 21.6164 27.2589 21.515 27.3892 21.4613C27.5194 21.4076 27.6664 21.406 27.7979 21.4568L34.2028 23.9504C34.334 24.0019 34.4389 24.1015 34.4944 24.2275C34.5499 24.3535 34.5516 24.4956 34.4991 24.6228L32.9619 28.3167C32.9087 28.4436 32.8057 28.545 32.6754 28.5987C32.5452 28.6524 32.3982 28.6541 32.2667 28.6033V28.6033ZM27.6899 21.7166C27.6296 21.6934 27.5623 21.6941 27.5026 21.7188C27.4429 21.7434 27.3957 21.7898 27.3713 21.848L25.8342 25.5416C25.8101 25.6 25.8109 25.6651 25.8364 25.7228C25.8618 25.7806 25.9099 25.8263 25.97 25.8499L32.3745 28.3434C32.4348 28.3666 32.5022 28.3659 32.5619 28.3413C32.6217 28.3166 32.6689 28.2702 32.6933 28.212L34.2304 24.5184C34.2545 24.4601 34.2537 24.3949 34.2282 24.3372C34.2027 24.2794 34.1547 24.2338 34.0946 24.2102L27.6899 21.7166Z" fill="#3F3D56"/>
<path d="M32.3047 26.2528L32.3044 26.2526L27.3602 24.3277C27.2912 24.3006 27.2326 24.2537 27.1922 24.1933C27.1518 24.1329 27.1316 24.062 27.1343 23.9901L27.2277 21.7502C27.23 21.6944 27.2462 21.64 27.2748 21.5914C27.3034 21.5429 27.3436 21.5017 27.3921 21.4714C27.4406 21.441 27.4959 21.4223 27.5533 21.4169C27.6108 21.4115 27.6688 21.4195 27.7224 21.4403L34.2657 23.9753C34.3541 24.0096 34.4249 24.0764 34.4627 24.161C34.5004 24.2456 34.5021 24.3412 34.4672 24.427L34.4886 24.4478L34.2835 24.6455L34.2834 24.6454L32.6938 26.1763C32.6439 26.2245 32.5804 26.2575 32.5112 26.2711C32.442 26.2847 32.3702 26.2783 32.3047 26.2528V26.2528Z" fill="#3F3D56"/>
<path d="M28.592 26.4157L26.393 25.5595C26.3389 25.5384 26.2956 25.4974 26.2728 25.4454C26.2499 25.3935 26.2493 25.3348 26.2711 25.2825C26.2929 25.2301 26.3353 25.1882 26.389 25.1661C26.4427 25.1439 26.5033 25.1433 26.5575 25.1643L28.7564 26.0205C28.8106 26.0416 28.8539 26.0826 28.8767 26.1346C28.8996 26.1866 28.9002 26.2452 28.8784 26.2976C28.8566 26.35 28.8142 26.3918 28.7605 26.414C28.7068 26.4361 28.6462 26.4367 28.592 26.4157V26.4157Z" fill="#3F3D56"/>
<path d="M14.1219 29.1986C14.1225 29.0897 14.0983 28.9819 14.0512 28.883C14.0041 28.784 13.9351 28.6963 13.8491 28.6259C13.7631 28.5555 13.6622 28.5043 13.5535 28.4757C13.4448 28.4471 13.331 28.4419 13.22 28.4605L11.8943 26.1434L11.2343 27.3626L12.5944 29.376C12.6391 29.5543 12.7498 29.7105 12.9055 29.8151C13.0613 29.9197 13.2513 29.9654 13.4396 29.9435C13.6279 29.9217 13.8014 29.8338 13.9271 29.6965C14.0528 29.5592 14.1222 29.382 14.1219 29.1986H14.1219Z" fill="#9E616A"/>
<path d="M13.2654 19.8394L11.9021 19.7469C11.9021 19.7469 11.7342 19.7248 11.2724 20.4331C10.8106 21.1415 9.22757 24.7334 9.22757 24.7334L12.0009 28.627L12.9017 27.7597L11.2913 24.6267L12.8349 22.5298L13.2654 19.8394Z" fill="#CACACA"/>
<path d="M28.2944 24.0486C28.2031 24.0823 28.1052 24.0962 28.0076 24.0894C27.9101 24.0825 27.8153 24.0551 27.7299 24.009C27.6446 23.9629 27.5707 23.8992 27.5135 23.8225C27.4563 23.7458 27.4172 23.6578 27.399 23.5649L25.0474 23.2301L25.8703 22.3391L27.9772 22.7937C28.1407 22.7744 28.3057 22.8137 28.4412 22.9042C28.5766 22.9948 28.673 23.1302 28.7121 23.2849C28.7512 23.4396 28.7303 23.6028 28.6533 23.7435C28.5763 23.8843 28.4486 23.9928 28.2944 24.0486V24.0486Z" fill="#9E616A"/>
<path d="M19.255 48.9641H20.26L20.738 45.215L19.2549 45.215L19.255 48.9641Z" fill="#9E616A"/>
<path d="M18.9987 48.6468L19.2816 48.6468L20.3859 48.2124L20.9777 48.6467H20.9778C21.3123 48.6467 21.633 48.7753 21.8696 49.004C22.1061 49.2328 22.239 49.543 22.239 49.8666V49.9062L18.9988 49.9063L18.9987 48.6468Z" fill="#2F2E41"/>
<path d="M13.1933 48.9641H14.1982L14.6763 45.215L13.1932 45.215L13.1933 48.9641Z" fill="#9E616A"/>
<path d="M12.937 48.6468L13.2198 48.6468L14.3241 48.2124L14.916 48.6467H14.9161C15.2505 48.6467 15.5713 48.7753 15.8078 49.004C16.0443 49.2328 16.1772 49.543 16.1772 49.8666V49.9062L12.937 49.9063L12.937 48.6468Z" fill="#2F2E41"/>
<path d="M13.5809 30.5024L12.9167 34.3748L13.1401 46.8229H14.7748L17.2862 33.6556L19.0928 46.6064L20.7365 46.5376L21.5567 33.4651L20.8197 30.1284L13.5809 30.5024Z" fill="#2F2E41"/>
<path d="M19.5872 18.9862L17.8376 18.7368L17.4656 17.8026L15.0007 17.7993L14.4468 19.0191L11.928 19.7547L14.0148 26.6886C14.0148 26.6886 12.8648 29.2654 13.1476 29.2764C13.4305 29.2875 13.5698 29.6787 13.3725 29.8842C13.1753 30.0898 12.7794 29.959 12.9773 30.2713C13.0907 30.4403 13.1667 30.6302 13.2004 30.829C13.2004 30.829 21.5464 32.5525 21.0841 30.3301C21.0266 30.0538 20.3293 26.2263 20.3293 26.2263C20.3293 26.2263 20.9365 25.5764 20.677 25.3181C20.4174 25.0598 20.5545 22.3319 20.5545 22.3319L19.5872 18.9862Z" fill="#CACACA"/>
<path d="M19.3008 19.2892L19.5872 18.9862L23.4775 21.1926L26.7694 22.4625L26.8332 23.5734L22.558 23.0797L19.5323 21.6486L19.3008 19.2892Z" fill="#CACACA"/>
<path d="M18.2191 15.1233C18.2191 15.3849 18.1658 15.6439 18.0623 15.8856C17.9588 16.1273 17.8072 16.3469 17.6159 16.5318C17.4247 16.7168 17.1977 16.8635 16.9478 16.9636C16.698 17.0637 16.4302 17.1153 16.1597 17.1153C15.9975 17.115 15.8359 17.0967 15.6781 17.0608C15.3019 16.9734 14.9588 16.7854 14.688 16.5183C14.4171 16.2511 14.2295 15.9156 14.1466 15.5502C14.0638 15.1847 14.0889 14.804 14.2192 14.4518C14.3496 14.0995 14.5798 13.7898 14.8836 13.5582C15.1874 13.3266 15.5524 13.1823 15.937 13.142C16.3216 13.1017 16.7101 13.167 17.0581 13.3303C17.4062 13.4936 17.6996 13.7484 17.905 14.0655C18.1103 14.3826 18.2191 14.7492 18.2191 15.1233V15.1233Z" fill="#9E616A"/>
<path d="M16.7113 16.7386L15.2322 17.0146C15.0944 17.0506 14.95 17.0564 14.8096 17.0315C14.5896 16.9755 14.4421 16.7791 14.3296 16.5878C13.8073 15.6921 13.6429 14.6422 13.8673 13.6371C13.9178 13.4152 14.0258 13.161 14.256 13.1158C14.3229 13.1027 14.3985 13.1079 14.4515 13.0662C14.5294 13.0049 14.5038 12.8748 14.4272 12.8119C14.344 12.7564 14.2459 12.7256 14.1448 12.7231C14.2101 12.6489 14.2909 12.5889 14.3819 12.547C14.4729 12.5052 14.572 12.4824 14.6727 12.4803L14.2771 12.2676C14.4676 12.1397 14.7237 12.1514 14.9485 12.2067C15.1733 12.2619 15.3896 12.3555 15.6206 12.3764C15.9105 12.4027 16.1966 12.3126 16.4856 12.2778C16.9168 12.2325 17.3524 12.3079 17.7407 12.4948C18.129 12.6817 18.4537 12.9724 18.6764 13.3325C18.7548 13.4525 18.8046 13.5881 18.8219 13.7291C18.8298 13.7997 18.8207 13.871 18.7951 13.9376C18.7696 14.0041 18.7283 14.0639 18.6747 14.1123C18.5127 14.2441 18.2576 14.2247 18.1007 14.3621C17.9797 14.468 17.9496 14.639 17.9428 14.7966C17.936 14.9543 17.9437 15.119 17.8739 15.2616C17.804 15.4042 17.6217 15.5114 17.476 15.4405C17.4696 15.2452 17.2368 15.107 17.0392 15.1473C16.8415 15.1876 16.6956 15.3615 16.6387 15.549C16.5818 15.7365 16.5987 15.9368 16.6235 16.1307C16.6482 16.3246 16.6804 16.5208 16.6526 16.7143" fill="#2F2E41"/>
<path d="M29.7236 25.7648C30.0209 25.7648 30.2619 25.5317 30.2619 25.2442C30.2619 24.9566 30.0209 24.7235 29.7236 24.7235C29.4263 24.7235 29.1853 24.9566 29.1853 25.2442C29.1853 25.5317 29.4263 25.7648 29.7236 25.7648Z" fill="#1E73BE"/>
<path d="M41.3784 50H0.0759689C0.0558572 49.9999 0.0365886 49.9922 0.0223881 49.9784C0.00818751 49.9646 0.000213623 49.946 0.000213623 49.9265C0.000213623 49.9071 0.00818751 49.8884 0.0223881 49.8746C0.0365886 49.8609 0.0558572 49.8531 0.0759689 49.853H41.3784C41.3985 49.853 41.4179 49.8608 41.4321 49.8746C41.4464 49.8883 41.4544 49.907 41.4544 49.9265C41.4544 49.946 41.4464 49.9647 41.4321 49.9785C41.4179 49.9923 41.3985 50 41.3784 50Z" fill="#CACACA"/>
</g>
<defs>
<clipPath id="clip0_607_304">
<rect width="49" height="50" fill="white"/>
</clipPath>
</defs>
</svg>
