<?xml version="1.0" encoding="utf-8"?>
<!-- Generator: Adobe Illustrator 16.0.0, SVG Export Plug-In . SVG Version: 6.00 Build 0)  -->
<!DOCTYPE svg PUBLIC "-//W3C//DTD SVG 1.1//EN" "http://www.w3.org/Graphics/SVG/1.1/DTD/svg11.dtd">
<svg version="1.1" id="Layer_1" xmlns="http://www.w3.org/2000/svg" xmlns:xlink="http://www.w3.org/1999/xlink" x="0px" y="0px"
	 width="103px" height="84px" viewBox="0 0 103 84" enable-background="new 0 0 103 84" xml:space="preserve">
<g display="none">
	<defs>
		<rect id="SVGID_1_" width="103" height="84"/>
	</defs>
	<clipPath id="SVGID_2_" display="inline">
		<use xlink:href="#SVGID_1_"  overflow="visible"/>
	</clipPath>
	<g display="inline" clip-path="url(#SVGID_2_)">
		<path fill="#E6E6E6" d="M30.19,79.158c0.393,0.374,0.876,0.641,1.402,0.773c0.525,0.133,1.077,0.127,1.6-0.015
			c1.341-0.382,2.251-1.593,3.059-2.729l2.391-3.364l-2.015,0.37c-1.449,0.266-2.933,0.545-4.195,1.306s-2.272,2.12-2.192,3.592"/>
		<path fill="#F2F2F2" d="M28.318,83.689c0.353-1.206,0.708-2.428,1.332-3.527c0.554-0.977,1.311-1.832,2.31-2.365
			c0.53-0.281,1.104-0.469,1.698-0.553c0.155-0.021,0.18,0.219,0.026,0.241c-1.029,0.147-1.983,0.617-2.728,1.343
			c-0.825,0.809-1.366,1.85-1.766,2.922c-0.242,0.648-0.438,1.313-0.632,1.977c-0.006,0.031-0.023,0.059-0.049,0.078
			c-0.025,0.02-0.058,0.027-0.089,0.023c-0.032-0.006-0.061-0.022-0.08-0.049C28.322,83.754,28.314,83.721,28.318,83.689
			L28.318,83.689z"/>
		<path fill="#FFB7B7" d="M67.219,35.122c0.229-0.055,0.468-0.06,0.699-0.013s0.45,0.145,0.64,0.285
			c0.19,0.141,0.347,0.321,0.46,0.529c0.111,0.208,0.178,0.438,0.191,0.674l5.527,1.555l-2.256,1.955l-4.902-1.777
			c-0.397-0.002-0.78-0.151-1.076-0.417c-0.295-0.266-0.482-0.632-0.527-1.027s0.058-0.793,0.287-1.119
			C66.49,35.442,66.831,35.213,67.219,35.122L67.219,35.122z"/>
		<path fill="#FFB7B7" d="M81.42,82.23h-1.611l-0.766-6.221l2.377,0.001V82.23z"/>
		<path fill="#2F2E41" d="M81.83,83.794h-5.193v-0.065c0-0.537,0.213-1.052,0.592-1.432c0.379-0.379,0.894-0.593,1.43-0.593l0,0
			h3.173L81.83,83.794z"/>
		<path fill="#FFB7B7" d="M90.859,82.23h-1.611l-0.766-6.221l2.377,0.001V82.23z"/>
		<path fill="#2F2E41" d="M91.271,83.794h-5.194v-0.065c0-0.537,0.213-1.052,0.592-1.432c0.379-0.379,0.894-0.593,1.43-0.593l0,0
			h3.173V83.794z"/>
		<path fill="#2F2E41" d="M80.104,46.529L77.73,62.984l0.592,17.336l3.563,0.283L83,65.057l2.836-8.669l1.668,12.358l0.068,11.574
			l3.68,0.283l1.283-24.334l-0.943-10.582L80.104,46.529z"/>
		<path fill="#FFB7B7" d="M86.967,24.5c2.074,0,3.754-1.683,3.754-3.758c0-2.075-1.68-3.758-3.754-3.758
			c-2.073,0-3.754,1.683-3.754,3.758C83.213,22.817,84.894,24.5,86.967,24.5z"/>
		<path fill="#CBCBCB" d="M84.653,26.543l-4.145,20.901c0,0,6.978,2.005,10.034,0.153c3.057-1.85,1.688-7.563,1.688-7.563
			l-0.561-9.721l-1.034-2.458l-0.878-2.029L84.653,26.543z"/>
		<path fill="#2F2E41" d="M83.44,41.379l1.431-15.242l-1.145,0.837l-4.003,1.301l-0.274,10.731l-2.8,14.11
			c0,0,2.001,3.91,4.482-2.559L83.44,41.379z"/>
		<path fill="#2F2E41" d="M81.65,29.881l-1.927-1.605l-4.329,9.416l-4.832-1.06l-0.229,2.857l7,2.773l4.771-6.649L81.65,29.881z"/>
		<path fill="#2F2E41" d="M89.145,38.043l0.54-12.404l1.985,1.539l3.547,0.99l-0.521,9.875l0.749,15.324l-3.719,1.179l-1.043-9.669
			L89.145,38.043z"/>
		<path fill="#FFB7B7" d="M89.384,48.029c0.042-0.233,0.134-0.454,0.27-0.647c0.136-0.192,0.313-0.354,0.518-0.472
			c0.205-0.117,0.433-0.188,0.669-0.208c0.234-0.02,0.472,0.013,0.693,0.095l3.644-4.441l0.882,2.853l-3.595,3.78
			c-0.162,0.363-0.452,0.654-0.813,0.818c-0.363,0.164-0.772,0.189-1.152,0.071s-0.703-0.372-0.908-0.712
			C89.385,48.824,89.311,48.42,89.384,48.029L89.384,48.029z"/>
		<path fill="#2F2E41" d="M92.842,29.544l2.375-1.377l5.973,11.81l-5.824,8.097l-3.321-2.66l4.034-5.266l-3.677-5.656L92.842,29.544
			z"/>
		<path fill="#2F2E41" d="M90.498,17.737l0.182-0.367l-0.916-0.456c0,0-1.01-1.646-2.838-1.183s-2.65,0.739-2.65,0.739l-0.914,0.46
			l0.459,0.457l-0.822,0.277l0.549,0.273l-0.639,0.368l0.344,1.886c0,0,0.572-1.43,1.671-0.884s3.108-0.283,3.108-0.283l1.746,3.383
			c0,0,0.361-1.186,1.003-0.87C90.78,21.539,92.422,18.922,90.498,17.737z"/>
		<path fill="#FFFFFF" d="M67.695,23.25h-0.024l-13.767,5.885l-18.836,8.052c-0.074,0.031-0.152,0.047-0.232,0.047
			c-0.08,0.001-0.159-0.015-0.233-0.045L15.17,29.119L1.065,23.26l-0.021-0.01H1.02c-0.223,0-0.436,0.089-0.593,0.247
			c-0.158,0.157-0.246,0.371-0.247,0.594v36.495c0,0.223,0.089,0.437,0.247,0.594c0.157,0.158,0.371,0.246,0.593,0.246h66.676
			c0.223,0,0.436-0.088,0.594-0.246c0.156-0.157,0.245-0.371,0.246-0.594V24.091c-0.001-0.223-0.09-0.437-0.246-0.594
			C68.131,23.339,67.918,23.251,67.695,23.25z"/>
		<path fill="#3F3D56" d="M67.755,23.491c-0.024,0-0.048-0.008-0.068-0.021L34.521,0.347c-0.101-0.07-0.221-0.107-0.344-0.107
			c-0.123,0-0.243,0.038-0.343,0.109L0.908,23.469c-0.026,0.019-0.058,0.025-0.089,0.02s-0.059-0.023-0.078-0.049
			c-0.018-0.026-0.025-0.059-0.02-0.09c0.006-0.031,0.023-0.059,0.049-0.077L33.697,0.152C33.838,0.053,34.005,0,34.177,0
			s0.34,0.052,0.481,0.15l33.166,23.122c0.021,0.015,0.036,0.036,0.045,0.06c0.008,0.024,0.008,0.05,0,0.075
			c-0.008,0.024-0.022,0.045-0.043,0.061C67.805,23.482,67.78,23.491,67.755,23.491L67.755,23.491z"/>
		<path fill="#E6E6E6" d="M2.79,24.311L34.21,0.999l31.659,24.97l-30.04,17.828L19.52,40.075L2.79,24.311z"/>
		<path fill="#1E73BE" d="M20.897,54.808H5.374c-0.095,0-0.189-0.019-0.278-0.055c-0.088-0.036-0.168-0.09-0.236-0.157
			c-0.067-0.066-0.121-0.146-0.158-0.235c-0.037-0.088-0.056-0.183-0.056-0.278c0-0.095,0.019-0.189,0.055-0.277
			c0.037-0.088,0.09-0.169,0.157-0.236s0.147-0.121,0.235-0.157c0.088-0.037,0.183-0.056,0.278-0.056h15.525
			c0.095,0,0.189,0.018,0.278,0.055c0.088,0.036,0.168,0.09,0.236,0.156c0.067,0.068,0.121,0.148,0.158,0.236
			s0.056,0.182,0.056,0.277s-0.019,0.19-0.055,0.278c-0.037,0.089-0.09,0.169-0.157,0.235c-0.067,0.068-0.147,0.121-0.235,0.158
			c-0.088,0.037-0.183,0.056-0.278,0.056H20.897z"/>
		<path fill="#1E73BE" d="M10.943,51.686H5.374c-0.095,0.001-0.189-0.018-0.278-0.054c-0.088-0.036-0.168-0.09-0.236-0.157
			c-0.067-0.067-0.121-0.147-0.158-0.235s-0.056-0.183-0.056-0.278s0.019-0.189,0.055-0.277c0.037-0.089,0.09-0.169,0.157-0.236
			s0.147-0.121,0.235-0.158c0.088-0.036,0.183-0.055,0.278-0.055h5.571c0.192,0,0.376,0.076,0.513,0.212
			c0.136,0.136,0.212,0.32,0.213,0.513c0,0.192-0.076,0.377-0.211,0.514c-0.136,0.137-0.32,0.213-0.512,0.213H10.943z"/>
		<path fill="#1E73BE" d="M34.652,37.294c-0.118,0-0.235-0.023-0.344-0.067L14.93,29.178V3.982c0-0.223,0.089-0.437,0.246-0.594
			c0.157-0.158,0.371-0.246,0.593-0.247h37.176c0.223,0,0.436,0.089,0.593,0.247c0.157,0.157,0.246,0.371,0.246,0.594v25.213
			l-0.036,0.016l-18.741,8.012C34.895,37.27,34.774,37.294,34.652,37.294z"/>
		<path fill="#3F3D56" d="M67.516,23.25h-0.024l-13.767,5.885l-18.836,8.052c-0.074,0.031-0.153,0.047-0.233,0.047
			c-0.08,0.001-0.159-0.015-0.232-0.045L14.99,29.119L0.885,23.26l-0.021-0.01H0.839c-0.223,0-0.436,0.089-0.593,0.247
			C0.089,23.654,0,23.868,0,24.091v36.495c0,0.223,0.089,0.437,0.246,0.594c0.157,0.158,0.371,0.246,0.593,0.246h66.676
			c0.223,0,0.436-0.088,0.593-0.246c0.157-0.157,0.246-0.371,0.246-0.594V24.091c0-0.223-0.089-0.437-0.246-0.594
			C67.951,23.339,67.738,23.251,67.516,23.25z M68.115,60.586c0,0.159-0.064,0.312-0.176,0.424
			c-0.113,0.113-0.266,0.176-0.424,0.176H0.839c-0.159,0-0.312-0.063-0.424-0.176c-0.112-0.112-0.176-0.265-0.176-0.424V24.091
			c0-0.155,0.061-0.304,0.168-0.416s0.254-0.178,0.409-0.184l14.173,5.887l19.34,8.034c0.209,0.085,0.444,0.084,0.653-0.003
			l18.741-8.012l13.814-5.905c0.154,0.006,0.301,0.073,0.408,0.185s0.167,0.261,0.168,0.416V60.586z"/>
		<path fill="#FFFFFF" d="M31.635,12.561H18.444c-0.254,0-0.498-0.102-0.677-0.282c-0.18-0.18-0.281-0.424-0.281-0.678
			s0.101-0.499,0.281-0.679c0.179-0.18,0.423-0.281,0.677-0.282h13.191c0.254,0,0.498,0.102,0.677,0.282
			c0.18,0.18,0.281,0.424,0.281,0.679s-0.101,0.499-0.281,0.678C32.133,12.458,31.89,12.56,31.635,12.561z"/>
		<path fill="#FFFFFF" d="M24.8,8.479h-6.355c-0.255,0-0.499-0.101-0.679-0.281c-0.18-0.18-0.281-0.424-0.281-0.679
			c0-0.254,0.101-0.499,0.281-0.679c0.18-0.18,0.424-0.282,0.679-0.282H24.8c0.254,0,0.499,0.102,0.679,0.282
			c0.18,0.18,0.281,0.424,0.281,0.679c0,0.255-0.101,0.499-0.281,0.679C25.298,8.377,25.054,8.479,24.8,8.479z"/>
		<path fill="#FFFFFF" d="M44.223,22.164H24.077c-0.254,0-0.499-0.101-0.678-0.281c-0.18-0.18-0.281-0.424-0.281-0.679
			c0-0.255,0.101-0.499,0.281-0.679c0.18-0.18,0.424-0.281,0.678-0.281h20.146c0.254,0,0.499,0.101,0.678,0.281
			c0.18,0.18,0.281,0.424,0.281,0.679c0,0.254-0.101,0.499-0.281,0.679C44.722,22.063,44.478,22.164,44.223,22.164z"/>
		<path fill="#FFFFFF" d="M44.223,26.606H24.077c-0.126,0-0.251-0.024-0.368-0.072c-0.117-0.048-0.223-0.119-0.312-0.208
			c-0.089-0.089-0.16-0.195-0.208-0.312s-0.073-0.242-0.073-0.368c0-0.126,0.025-0.251,0.073-0.368s0.119-0.223,0.208-0.312
			c0.089-0.089,0.195-0.16,0.312-0.208c0.117-0.048,0.242-0.073,0.368-0.072h20.146c0.126,0,0.251,0.024,0.368,0.072
			c0.117,0.048,0.223,0.119,0.312,0.208c0.089,0.089,0.16,0.195,0.208,0.312c0.048,0.117,0.073,0.242,0.073,0.368
			c0,0.126-0.025,0.251-0.073,0.368c-0.048,0.117-0.119,0.223-0.208,0.312c-0.089,0.089-0.195,0.16-0.312,0.208
			C44.474,26.582,44.35,26.606,44.223,26.606z"/>
		<path fill="#CBCBCB" d="M102.854,83.945H64.365c-0.039,0-0.076-0.016-0.104-0.043s-0.043-0.064-0.043-0.104
			s0.016-0.076,0.043-0.104s0.064-0.043,0.104-0.043h38.488c0.039,0,0.076,0.016,0.104,0.043S103,83.76,103,83.799
			s-0.016,0.076-0.043,0.104S102.893,83.945,102.854,83.945z"/>
		<path fill="#CBCBCB" d="M35.682,83.945H21.486c-0.039,0-0.076-0.016-0.104-0.043s-0.042-0.064-0.042-0.104
			s0.015-0.076,0.042-0.104s0.065-0.043,0.104-0.043h14.196c0.039,0,0.076,0.016,0.103,0.043c0.028,0.027,0.043,0.064,0.043,0.104
			s-0.015,0.076-0.043,0.104C35.757,83.93,35.72,83.945,35.682,83.945z"/>
		<path fill="#E6E6E6" d="M26.706,79.416c0.542-0.012,1.072-0.164,1.538-0.441s0.854-0.669,1.125-1.139
			c0.683-1.218,0.475-2.719,0.246-4.096l-0.674-4.072l-1.168,1.685c-0.84,1.211-1.696,2.457-2.055,3.887
			c-0.358,1.431-0.118,3.106,0.976,4.095"/>
		<path fill="#F2F2F2" d="M28.57,83.951c-0.599-1.105-1.208-2.223-1.54-3.441c-0.295-1.084-0.361-2.225-0.028-3.308
			c0.177-0.573,0.453-1.112,0.814-1.591c0.094-0.125,0.282,0.028,0.188,0.152c-0.625,0.83-0.972,1.838-0.988,2.877
			c-0.016,1.156,0.334,2.276,0.806,3.319c0.285,0.63,0.614,1.239,0.944,1.847c0.018,0.027,0.025,0.059,0.021,0.091
			s-0.021,0.06-0.047,0.079c-0.026,0.02-0.059,0.027-0.09,0.021C28.618,83.994,28.589,83.977,28.57,83.951L28.57,83.951z"/>
	</g>
</g>
<g>
	<defs>
		<rect id="SVGID_3_" x="11.835" y="-0.083" width="79.33" height="84.167"/>
	</defs>
	<clipPath id="SVGID_4_">
		<use xlink:href="#SVGID_3_"  overflow="visible"/>
	</clipPath>
	<g clip-path="url(#SVGID_4_)">
		<path fill="#F2F2F2" d="M70.081,80.957l-4.937-3.168l6.43,1.85c4.039-3.879,6.997-9.256,6.997-9.256s-10.817-6.645-17.48-4.871
			c-6.664,1.771-7.943,6.375-6.65,11.291c1.292,4.914,4.667,8.279,11.331,6.506C67.255,82.914,68.711,82.055,70.081,80.957z"/>
		<path fill="#FFFFFF" d="M64.654,76.766l-0.328,0.088c-3.824,0.996-6.974,1.143-9.405,0.428c-0.035-0.01-0.069-0.021-0.105-0.031
			l0.05-0.164l0.047-0.158c2.636,0.807,5.97,0.453,9.305-0.414c0.107-0.027,0.217-0.055,0.326-0.086
			c1.408-0.379,2.812-0.846,4.159-1.352c0.106-0.039,0.211-0.08,0.317-0.121c1.777-0.678,3.45-1.422,4.893-2.109
			c0.102-0.049,0.203-0.098,0.304-0.146c2.438-1.174,4.163-2.174,4.544-2.396c0.048-0.025,0.073-0.041,0.08-0.045l0.083,0.145
			l0.003,0.002l0.086,0.145c-0.007,0.002-0.093,0.055-0.253,0.146c-0.597,0.348-2.227,1.266-4.415,2.326
			c-0.098,0.047-0.2,0.098-0.302,0.145c-1.17,0.561-2.485,1.152-3.883,1.717c-0.35,0.143-0.697,0.279-1.041,0.408
			c-0.105,0.043-0.211,0.084-0.315,0.121C67.344,75.961,65.961,76.412,64.654,76.766z"/>
		<path fill="#FFFFFF" d="M74.344,73.021c-0.043-0.107-0.086-0.213-0.128-0.322c-0.111-0.299-0.207-0.602-0.289-0.912
			c-0.348-1.311-0.396-2.686-0.146-4.02c-0.104-0.045-0.209-0.092-0.314-0.139c-0.277,1.408-0.23,2.859,0.137,4.246
			c0.085,0.328,0.189,0.654,0.31,0.971c0.041,0.109,0.084,0.215,0.13,0.32c0.366,0.871,0.863,1.68,1.472,2.398
			c0.07-0.092,0.141-0.184,0.21-0.275C75.155,74.605,74.69,73.842,74.344,73.021z"/>
		<path fill="#FFFFFF" d="M69.118,75.291c-0.036-0.111-0.068-0.223-0.099-0.336c-0.011-0.033-0.021-0.07-0.029-0.104
			c-0.374-1.424-0.4-2.914-0.077-4.35c0.324-1.436,0.986-2.77,1.934-3.893c-0.113-0.041-0.227-0.08-0.34-0.117
			c-0.953,1.16-1.616,2.529-1.937,3.998c-0.319,1.471-0.288,2.994,0.096,4.447c0.012,0.047,0.022,0.092,0.036,0.139
			c0.032,0.113,0.066,0.225,0.101,0.336c0.547,1.723,1.577,3.25,2.967,4.398c0.081-0.076,0.164-0.154,0.244-0.232
			C70.655,78.463,69.649,76.973,69.118,75.291z"/>
		<path fill="#FFFFFF" d="M64.654,76.766c-0.041-0.111-0.077-0.223-0.111-0.338c-0.037-0.119-0.073-0.242-0.105-0.365
			c-0.501-1.912-0.372-3.936,0.367-5.768c0.738-1.832,2.048-3.375,3.731-4.396c-0.151-0.039-0.301-0.078-0.452-0.113
			c-1.66,1.09-2.938,2.676-3.652,4.537c-0.712,1.859-0.825,3.898-0.319,5.826c0.033,0.123,0.066,0.246,0.104,0.365
			c0.033,0.115,0.07,0.229,0.109,0.34c0.787,2.264,2.401,4.145,4.516,5.256c0.111-0.066,0.219-0.137,0.329-0.209
			C67.059,80.846,65.438,79.004,64.654,76.766z"/>
		<path fill="#403D56" d="M58.123,83.471l-24.411-9.879c-1.462-0.596-2.631-1.748-3.248-3.209c-0.62-1.459-0.636-3.107-0.05-4.578
			L55.285,3.666c0.591-1.471,1.737-2.646,3.189-3.268c1.451-0.622,3.089-0.64,4.553-0.049l24.409,9.882
			c1.463,0.593,2.632,1.747,3.25,3.207c0.618,1.459,0.635,3.106,0.047,4.579l-24.869,62.14c-0.591,1.469-1.738,2.646-3.188,3.268
			C61.224,84.045,59.588,84.063,58.123,83.471z"/>
		<path fill="#FFFFFF" d="M86.474,11.843l-2.718-1.1c-0.241-0.098-0.514-0.094-0.754,0.008c-0.239,0.104-0.431,0.299-0.527,0.542
			c-0.2,0.499-0.59,0.896-1.081,1.107c-0.492,0.21-1.045,0.216-1.541,0.016L66.563,7.037c-0.496-0.201-0.892-0.591-1.102-1.085
			c-0.211-0.495-0.216-1.053-0.017-1.552c0.098-0.244,0.095-0.517-0.008-0.759c-0.103-0.242-0.296-0.433-0.539-0.531l-2.396-0.969
			c-1.11-0.448-2.352-0.435-3.453,0.036c-1.101,0.473-1.971,1.364-2.418,2.479L31.938,66.352c-0.443,1.117-0.432,2.367,0.038,3.475
			c0.468,1.105,1.354,1.982,2.464,2.432l23.971,9.705c1.11,0.447,2.353,0.434,3.453-0.039c1.101-0.471,1.97-1.361,2.419-2.479
			l24.692-61.698c0.445-1.116,0.433-2.365-0.036-3.472C88.469,13.169,87.582,12.294,86.474,11.843z"/>
		<path fill="#FFFFFF" d="M77.18,9.52l-7.498-3.034c-0.07-0.03-0.128-0.084-0.158-0.156c-0.028-0.07-0.028-0.15-0.001-0.222
			c0.027-0.071,0.084-0.129,0.154-0.159c0.07-0.029,0.15-0.031,0.221-0.002l7.497,3.035c0.035,0.015,0.067,0.035,0.094,0.063
			c0.026,0.026,0.05,0.058,0.065,0.094c0.013,0.035,0.021,0.072,0.021,0.11c0,0.039-0.008,0.077-0.021,0.112
			c-0.015,0.035-0.036,0.067-0.063,0.095c-0.026,0.027-0.058,0.049-0.093,0.064c-0.034,0.014-0.071,0.022-0.109,0.023
			C77.251,9.542,77.215,9.534,77.18,9.52z"/>
		<path fill="#FFFFFF" d="M78.465,9.96c0.127,0,0.231-0.105,0.231-0.232c0-0.129-0.104-0.233-0.231-0.233
			c-0.128,0-0.231,0.104-0.231,0.233C78.233,9.855,78.337,9.96,78.465,9.96z"/>
		<path fill="#403D56" d="M83.362,37.055c-0.126-0.051-0.229-0.152-0.283-0.279c-0.054-0.128-0.055-0.271-0.004-0.4l3.793-9.479
			c0.054-0.129,0.152-0.23,0.279-0.285c0.127-0.054,0.27-0.055,0.397-0.004c0.128,0.052,0.229,0.153,0.283,0.28
			c0.056,0.127,0.057,0.272,0.005,0.4l-3.794,9.478c-0.052,0.128-0.151,0.23-0.278,0.285C83.635,37.105,83.491,37.107,83.362,37.055
			z"/>
		<path fill="#403D56" d="M50.502,15.618c-0.128-0.052-0.23-0.152-0.282-0.281c-0.056-0.126-0.058-0.27-0.005-0.398l0.862-2.155
			c0.023-0.063,0.062-0.122,0.11-0.171c0.048-0.05,0.104-0.088,0.167-0.116c0.063-0.027,0.131-0.042,0.199-0.042
			c0.067-0.001,0.136,0.012,0.199,0.038c0.063,0.026,0.121,0.063,0.169,0.111c0.049,0.048,0.088,0.105,0.115,0.168
			c0.026,0.064,0.039,0.132,0.041,0.2c0,0.069-0.012,0.137-0.037,0.2l-0.863,2.154c-0.052,0.128-0.152,0.231-0.278,0.285
			C50.772,15.667,50.63,15.669,50.502,15.618z"/>
		<path fill="#403D56" d="M48.907,19.603c-0.127-0.052-0.23-0.152-0.283-0.28c-0.054-0.128-0.056-0.271-0.005-0.399l0.861-2.154
			c0.026-0.064,0.063-0.123,0.111-0.172s0.105-0.088,0.168-0.116c0.062-0.026,0.131-0.04,0.198-0.041
			c0.068,0,0.137,0.013,0.199,0.038c0.063,0.025,0.122,0.064,0.17,0.111c0.049,0.049,0.089,0.106,0.114,0.169
			c0.026,0.063,0.041,0.131,0.042,0.2c0,0.069-0.014,0.137-0.038,0.2l-0.861,2.154c-0.053,0.128-0.152,0.231-0.279,0.286
			C49.178,19.652,49.034,19.654,48.907,19.603z"/>
		<path fill="#403D56" d="M71.81,28.75l-10.367-4.196c-0.213-0.087-0.383-0.256-0.474-0.467c-0.089-0.213-0.092-0.452-0.008-0.666
			l2.49-6.218c0.085-0.214,0.252-0.385,0.463-0.476c0.211-0.089,0.45-0.093,0.661-0.007l10.37,4.197
			c0.213,0.087,0.382,0.256,0.473,0.468c0.09,0.211,0.093,0.451,0.007,0.665l-2.488,6.218c-0.087,0.213-0.253,0.384-0.464,0.474
			C72.263,28.833,72.023,28.836,71.81,28.75z M64.402,17.159c-0.099-0.04-0.208-0.038-0.305,0.003
			c-0.097,0.042-0.173,0.119-0.211,0.218l-2.489,6.218c-0.04,0.099-0.038,0.208,0.004,0.304c0.041,0.098,0.118,0.174,0.215,0.214
			l10.37,4.198c0.097,0.039,0.206,0.038,0.303-0.003c0.098-0.042,0.174-0.12,0.213-0.218l2.489-6.218
			c0.038-0.098,0.037-0.208-0.005-0.305c-0.041-0.098-0.118-0.174-0.217-0.214L64.402,17.159z"/>
		<path fill="#403D56" d="M71.872,24.793L71.872,24.793l-8.005-3.24c-0.112-0.045-0.206-0.125-0.272-0.226
			c-0.063-0.101-0.098-0.221-0.093-0.342l0.151-3.771c0.004-0.095,0.029-0.185,0.076-0.267c0.045-0.083,0.111-0.152,0.189-0.203
			c0.078-0.051,0.168-0.082,0.262-0.092c0.092-0.01,0.188,0.004,0.273,0.04l10.593,4.267c0.144,0.058,0.258,0.169,0.32,0.313
			c0.06,0.142,0.063,0.302,0.007,0.448l0.034,0.034l-0.332,0.333l0,0l-2.574,2.577c-0.08,0.081-0.183,0.137-0.295,0.16
			C72.095,24.849,71.979,24.838,71.872,24.793z"/>
		<path fill="#403D56" d="M65.862,25.068l-3.561-1.44c-0.088-0.036-0.158-0.105-0.195-0.192c-0.036-0.087-0.037-0.186-0.002-0.274
			s0.104-0.159,0.189-0.196c0.088-0.038,0.186-0.038,0.274-0.003l3.561,1.441c0.087,0.036,0.156,0.105,0.194,0.193
			c0.036,0.087,0.038,0.186,0.002,0.274c-0.035,0.088-0.104,0.158-0.19,0.196C66.048,25.103,65.949,25.104,65.862,25.068
			L65.862,25.068z"/>
		<path fill="#FFFFFF" d="M68.065,23.875c0.481,0,0.872-0.392,0.872-0.877c0-0.483-0.391-0.876-0.872-0.876s-0.87,0.393-0.87,0.876
			C67.195,23.483,67.584,23.875,68.065,23.875z"/>
		<path fill="#403D56" d="M56.349,67.385l-10.371-4.197c-0.211-0.088-0.381-0.256-0.471-0.467c-0.089-0.211-0.093-0.451-0.008-0.666
			l2.489-6.217c0.086-0.215,0.252-0.387,0.464-0.475c0.21-0.092,0.448-0.094,0.662-0.008l10.368,4.197
			c0.212,0.086,0.383,0.254,0.474,0.465c0.088,0.211,0.092,0.453,0.008,0.666l-2.488,6.219c-0.088,0.213-0.255,0.383-0.466,0.475
			C56.8,67.467,56.562,67.471,56.349,67.385z M48.939,55.791c-0.098-0.037-0.207-0.037-0.304,0.004
			c-0.096,0.043-0.173,0.121-0.212,0.217l-2.489,6.221c-0.039,0.098-0.038,0.207,0.004,0.303c0.04,0.098,0.119,0.176,0.216,0.215
			l10.368,4.197c0.099,0.039,0.207,0.037,0.305-0.004c0.096-0.041,0.174-0.119,0.212-0.217l2.488-6.219
			c0.04-0.098,0.038-0.209-0.003-0.305c-0.042-0.098-0.119-0.174-0.217-0.213L48.939,55.791z"/>
		<path fill="#403D56" d="M56.41,63.428L56.41,63.428l-8.005-3.24c-0.111-0.047-0.206-0.125-0.272-0.229
			c-0.065-0.1-0.098-0.219-0.094-0.34l0.151-3.771c0.004-0.092,0.03-0.186,0.077-0.266c0.044-0.082,0.111-0.152,0.189-0.203
			c0.078-0.051,0.167-0.082,0.261-0.092c0.092-0.01,0.187,0.004,0.273,0.041l10.594,4.266c0.143,0.059,0.256,0.17,0.317,0.313
			s0.063,0.303,0.008,0.449l0.035,0.033l-0.333,0.334l0,0l-2.573,2.576c-0.08,0.082-0.184,0.137-0.296,0.16
			C56.632,63.48,56.517,63.471,56.41,63.428z"/>
		<path fill="#403D56" d="M50.399,63.703l-3.561-1.441c-0.087-0.035-0.158-0.105-0.194-0.193c-0.037-0.086-0.039-0.186-0.002-0.273
			c0.034-0.09,0.103-0.16,0.19-0.197c0.087-0.037,0.186-0.037,0.272-0.002l3.561,1.441c0.044,0.018,0.082,0.045,0.116,0.076
			c0.033,0.033,0.061,0.072,0.078,0.115s0.027,0.09,0.028,0.137s-0.009,0.094-0.025,0.139c-0.017,0.043-0.044,0.082-0.076,0.115
			c-0.033,0.035-0.071,0.061-0.115,0.08c-0.043,0.02-0.089,0.029-0.136,0.029S50.442,63.721,50.399,63.703z"/>
		<path fill="#FFFFFF" d="M52.604,62.51c0.48,0,0.871-0.393,0.871-0.879c0-0.482-0.391-0.875-0.871-0.875
			c-0.481,0-0.871,0.393-0.871,0.875C51.732,62.117,52.122,62.51,52.604,62.51z"/>
		<path fill="#2573B9" d="M60.457,51.637c5.264,0,9.532-4.291,9.532-9.586c0-5.294-4.269-9.587-9.532-9.587
			c-5.265,0-9.531,4.293-9.531,9.587C50.926,47.346,55.192,51.637,60.457,51.637z"/>
		<path fill="#403D56" d="M64.075,48.064l-10.37-4.197c-0.214-0.086-0.383-0.254-0.473-0.465c-0.09-0.213-0.093-0.453-0.008-0.666
			l2.489-6.218c0.087-0.215,0.253-0.386,0.464-0.476c0.21-0.09,0.449-0.093,0.663-0.007l10.367,4.197
			c0.213,0.086,0.383,0.254,0.473,0.467c0.09,0.211,0.092,0.45,0.009,0.665L65.2,47.584c-0.087,0.213-0.254,0.383-0.464,0.473
			C64.524,48.148,64.287,48.15,64.075,48.064z M56.664,36.473c-0.098-0.04-0.206-0.038-0.303,0.003
			c-0.097,0.042-0.173,0.12-0.213,0.218l-2.488,6.218c-0.039,0.098-0.038,0.207,0.004,0.305c0.041,0.098,0.118,0.174,0.217,0.213
			l10.367,4.199c0.099,0.037,0.207,0.037,0.304-0.004c0.098-0.041,0.174-0.121,0.212-0.219l2.489-6.217
			c0.04-0.099,0.038-0.208-0.004-0.305c-0.041-0.097-0.119-0.174-0.215-0.214L56.664,36.473z"/>
		<path fill="#403D56" d="M64.135,44.107L64.135,44.107l-8.003-3.239c-0.112-0.045-0.208-0.125-0.272-0.227
			c-0.066-0.101-0.099-0.221-0.095-0.342l0.151-3.77c0.004-0.095,0.03-0.187,0.077-0.268c0.045-0.082,0.11-0.151,0.189-0.203
			c0.078-0.052,0.168-0.082,0.261-0.091c0.093-0.01,0.188,0.003,0.273,0.04l10.593,4.267c0.145,0.059,0.259,0.17,0.319,0.313
			c0.063,0.143,0.064,0.303,0.008,0.448l0.035,0.035l-0.332,0.333l0,0l-2.575,2.578c-0.079,0.082-0.184,0.137-0.295,0.16
			C64.358,44.162,64.241,44.152,64.135,44.107z"/>
		<path fill="#403D56" d="M58.125,44.383l-3.56-1.441c-0.089-0.035-0.159-0.104-0.194-0.191c-0.039-0.088-0.039-0.188-0.003-0.274
			c0.033-0.089,0.103-0.16,0.189-0.196c0.088-0.038,0.186-0.039,0.273-0.003l3.561,1.44c0.088,0.037,0.157,0.105,0.194,0.193
			c0.038,0.088,0.038,0.186,0.003,0.273s-0.104,0.16-0.191,0.197C58.312,44.418,58.212,44.418,58.125,44.383z"/>
		<path fill="#9D616A" d="M34.698,49.068c0-0.184-0.037-0.365-0.115-0.533c-0.074-0.166-0.188-0.313-0.327-0.432
			c-0.139-0.119-0.302-0.205-0.477-0.252c-0.176-0.049-0.362-0.057-0.541-0.027l-2.147-3.898l-1.068,2.051l2.203,3.389
			c0.072,0.301,0.251,0.564,0.504,0.742c0.252,0.174,0.56,0.25,0.865,0.215c0.305-0.037,0.586-0.186,0.789-0.416
			C34.587,49.674,34.698,49.377,34.698,49.068L34.698,49.068z"/>
		<path fill="#C9C9C9" d="M33.31,33.313l-2.206-0.156c0,0-0.271-0.037-1.02,1.155c-0.746,1.192-3.31,7.238-3.31,7.238l4.49,6.555
			l1.459-1.461l-2.607-5.272l2.499-3.53L33.31,33.313z"/>
		<path fill="#9D616A" d="M57.643,40.398c-0.146,0.058-0.306,0.081-0.464,0.069c-0.158-0.011-0.312-0.059-0.45-0.136
			c-0.139-0.078-0.257-0.184-0.351-0.313c-0.092-0.128-0.155-0.278-0.185-0.434l-3.807-0.564l1.331-1.499l3.412,0.765
			c0.264-0.032,0.533,0.033,0.751,0.187c0.22,0.152,0.375,0.38,0.439,0.641c0.063,0.261,0.027,0.535-0.097,0.773
			C58.101,40.122,57.893,40.305,57.643,40.398z"/>
		<path fill="#9D616A" d="M43.009,82.34h1.626l0.774-6.311h-2.4V82.34z"/>
		<path fill="#2F2E41" d="M42.593,81.807h0.459l1.787-0.732l0.958,0.732l0,0c0.542,0,1.061,0.215,1.443,0.602
			c0.384,0.385,0.599,0.906,0.599,1.451v0.066h-5.247V81.807z"/>
		<path fill="#9D616A" d="M33.195,82.34h1.626l0.774-6.311h-2.4V82.34z"/>
		<path fill="#2F2E41" d="M32.78,81.807h0.458l1.788-0.732l0.958,0.732l0,0c0.542,0,1.062,0.215,1.444,0.602
			c0.382,0.385,0.598,0.906,0.598,1.451v0.066H32.78V81.807z"/>
		<path fill="#2F2E41" d="M33.823,51.262l-1.077,6.52l0.362,20.953h2.646L39.82,56.57l2.925,21.801l2.661-0.117l1.328-22.004
			l-1.192-5.617L33.823,51.262z"/>
		<path fill="#C9C9C9" d="M43.546,31.876l-2.832-0.42l-0.602-1.572l-3.991-0.006l-0.897,2.054l-4.077,1.238l3.378,11.672
			c0,0-1.862,4.338-1.403,4.357c0.458,0.018,0.685,0.676,0.363,1.021c-0.319,0.348-0.96,0.127-0.64,0.652
			c0.185,0.285,0.307,0.605,0.36,0.939c0,0,13.513,2.9,12.765-0.84c-0.094-0.467-1.222-6.908-1.222-6.908s0.983-1.094,0.563-1.529
			c-0.421-0.435-0.198-5.027-0.198-5.027L43.546,31.876z"/>
		<path fill="#C9C9C9" d="M43.082,32.386l0.464-0.51l6.298,3.714l5.331,2.138l0.103,1.87l-6.921-0.832l-4.898-2.409L43.082,32.386z"
			/>
		<path fill="#9D616A" d="M41.332,25.374c0,0.44-0.085,0.877-0.253,1.283c-0.168,0.407-0.414,0.776-0.723,1.088
			c-0.309,0.312-0.679,0.559-1.082,0.727c-0.405,0.169-0.838,0.255-1.276,0.255c-0.263-0.001-0.524-0.032-0.781-0.092
			c-0.609-0.147-1.164-0.463-1.603-0.912c-0.438-0.45-0.742-1.015-0.875-1.631c-0.135-0.614-0.093-1.254,0.117-1.848
			c0.212-0.593,0.584-1.115,1.076-1.504c0.493-0.391,1.083-0.633,1.705-0.701c0.624-0.068,1.252,0.041,1.816,0.317
			c0.563,0.274,1.038,0.703,1.371,1.237C41.155,24.126,41.332,24.745,41.332,25.374L41.332,25.374z"/>
		<path fill="#2F2E41" d="M38.89,28.093l-2.395,0.465c-0.224,0.061-0.457,0.07-0.684,0.028c-0.356-0.095-0.596-0.425-0.777-0.746
			c-0.847-1.508-1.111-3.275-0.748-4.967c0.082-0.374,0.255-0.802,0.629-0.878c0.108-0.021,0.231-0.013,0.316-0.083
			c0.126-0.103,0.085-0.323-0.04-0.428c-0.135-0.093-0.293-0.146-0.457-0.149c0.106-0.124,0.237-0.227,0.383-0.296
			c0.147-0.071,0.308-0.109,0.471-0.112l-0.64-0.358c0.308-0.215,0.723-0.195,1.085-0.102c0.365,0.092,0.715,0.25,1.089,0.285
			c0.469,0.044,0.932-0.107,1.4-0.166c0.697-0.076,1.404,0.051,2.032,0.365s1.155,0.804,1.515,1.41
			c0.127,0.202,0.207,0.431,0.235,0.668c0.014,0.119-0.001,0.239-0.043,0.352c-0.041,0.111-0.107,0.211-0.193,0.294
			c-0.263,0.222-0.677,0.189-0.931,0.42c-0.196,0.178-0.244,0.465-0.255,0.731c-0.012,0.266,0.002,0.542-0.111,0.782
			c-0.113,0.24-0.409,0.421-0.645,0.303c-0.011-0.329-0.387-0.562-0.708-0.494c-0.319,0.068-0.556,0.36-0.647,0.676
			c-0.092,0.315-0.064,0.654-0.026,0.98c0.042,0.326,0.093,0.657,0.047,0.982"/>
		<path fill="#2573B9" d="M59.958,43.287c0.479,0,0.87-0.391,0.87-0.876c0-0.485-0.391-0.875-0.87-0.875
			c-0.482,0-0.872,0.391-0.872,0.875C59.086,42.896,59.476,43.287,59.958,43.287z"/>
		<path fill="#C9C9C9" d="M78.826,84.084H11.958c-0.032,0-0.063-0.014-0.086-0.037c-0.024-0.023-0.037-0.055-0.037-0.088
			c0-0.031,0.013-0.064,0.037-0.088c0.022-0.021,0.054-0.035,0.086-0.035h66.869c0.032,0,0.063,0.014,0.087,0.035
			c0.023,0.023,0.036,0.057,0.036,0.088c0,0.033-0.013,0.064-0.036,0.088S78.858,84.084,78.826,84.084z"/>
	</g>
</g>
</svg>
