<svg width="82" height="87" viewBox="0 0 82 87" fill="none" xmlns="http://www.w3.org/2000/svg">
<g clip-path="url(#clip0_540_1349)">
<path d="M60.2063 83.7684L55.1041 80.4931L61.75 82.4067C65.9251 78.3954 68.9835 72.8378 68.9835 72.8378C68.9835 72.8378 57.8013 65.9707 50.9132 67.8032C44.0251 69.6357 42.7032 74.3937 44.0395 79.4738C45.3757 84.5539 48.8639 88.0322 55.752 86.1998C57.2852 85.7919 58.7911 84.903 60.2063 83.7684Z" fill="#F2F2F2"/>
<path d="M54.5966 79.4367L54.2571 79.5271C50.3052 80.5567 47.0499 80.7065 44.5362 79.9699C44.4994 79.9598 44.4638 79.9476 44.4269 79.9375L44.4773 79.7667L44.5278 79.6032C47.2525 80.4374 50.6976 80.0725 54.1448 79.1753C54.2562 79.1475 54.3693 79.1192 54.4814 79.0876C55.9374 78.6948 57.3879 78.2131 58.7821 77.6884C58.8904 77.6487 58.9999 77.6069 59.1094 77.5652C60.9462 76.8631 62.6758 76.0955 64.1666 75.3841C64.2722 75.3343 64.3774 75.2828 64.4809 75.2318C66.9994 74.0174 68.784 72.9873 69.1781 72.7558C69.2267 72.7285 69.253 72.7124 69.2593 72.7089L69.3469 72.8574L69.3491 72.8587L69.4371 73.0089C69.4309 73.0124 69.3426 73.0666 69.1769 73.1613C68.5589 73.5193 66.8756 74.4699 64.6136 75.5655C64.5113 75.6144 64.4062 75.6659 64.3006 75.7156C63.0914 76.2942 61.7312 76.9075 60.2875 77.4905C59.9252 77.6375 59.5665 77.7782 59.2115 77.9124C59.1025 77.9559 58.993 77.9977 58.8847 78.0373C57.3776 78.6047 55.9482 79.0711 54.5966 79.4367Z" fill="white"/>
<path d="M64.6136 75.5654C64.5687 75.4562 64.5233 75.3453 64.4809 75.2318C64.3651 74.9237 64.2651 74.6098 64.1813 74.2914C63.8226 72.9348 63.7711 71.5146 64.0306 70.1353C63.9228 70.088 63.815 70.0407 63.7052 69.9922C63.4188 71.4467 63.4666 72.9478 63.8452 74.3808C63.9347 74.7207 64.042 75.0556 64.1666 75.3841C64.2086 75.4959 64.254 75.6068 64.3006 75.7156C64.6798 76.615 65.1927 77.4513 65.8216 78.1958C65.8949 78.0986 65.967 78.0034 66.0379 77.9104C65.4509 77.2036 64.9709 76.4134 64.6136 75.5654Z" fill="white"/>
<path d="M59.2115 77.9124C59.1741 77.7975 59.1401 77.6818 59.1094 77.5651C59.0984 77.5301 59.0886 77.4929 59.0793 77.4574C58.6925 75.987 58.665 74.4443 58.9991 72.9609C59.3333 71.4774 60.0191 70.0973 60.9982 68.938C60.8813 68.8968 60.7643 68.8556 60.6461 68.8165C59.6622 70.015 58.9763 71.4321 58.6454 72.9503C58.3144 74.4686 58.348 76.0442 58.7431 77.5468C58.7556 77.5942 58.768 77.6415 58.7822 77.6884C58.815 77.8063 58.849 77.922 58.8847 78.0373C59.4514 79.8177 60.5159 81.3963 61.9511 82.5843C62.036 82.5038 62.121 82.4233 62.2055 82.3412C60.8002 81.1893 59.7598 79.6502 59.2115 77.9124Z" fill="white"/>
<path d="M54.5966 79.4367C54.5554 79.3211 54.5176 79.2045 54.4814 79.0875C54.443 78.9621 54.4063 78.8362 54.373 78.7094C53.8555 76.733 53.9886 74.6411 54.7522 72.747C55.5158 70.853 56.8689 69.2586 58.6089 68.2027C58.4527 68.1628 58.2983 68.1225 58.143 68.0861C56.4258 69.2111 55.1049 70.8517 54.3678 72.7748C53.6306 74.698 53.5148 76.8058 54.0368 78.7989C54.0702 78.9257 54.1052 79.052 54.1448 79.1753C54.1797 79.2944 54.2176 79.411 54.2571 79.527C55.0717 81.8676 56.7403 83.8095 58.9249 84.9593C59.04 84.8907 59.152 84.8175 59.2657 84.7438C57.0824 83.6527 55.4076 81.749 54.5966 79.4367Z" fill="white"/>
<path d="M47.8457 86.3677L22.6145 76.1538C21.1025 75.5397 19.8945 74.3475 19.2554 72.8388C18.6163 71.3301 18.5984 69.6281 19.2056 68.1061L44.9128 3.87593C45.5234 2.35533 46.7088 1.1404 48.2089 0.497675C49.7091 -0.145049 51.4015 -0.163077 52.9148 0.447547L78.1461 10.6615C79.6581 11.2756 80.8661 12.4677 81.5052 13.9764C82.1442 15.4851 82.1621 17.1872 81.555 18.7092L55.8478 82.9393C55.2372 84.4599 54.0518 85.6749 52.5516 86.3176C51.0515 86.9603 49.3591 86.9783 47.8457 86.3677Z" fill="#3F3D56"/>
<path d="M77.1508 12.3285L74.3423 11.1916C74.0915 11.0904 73.8111 11.0933 73.5625 11.1998C73.3139 11.3063 73.1175 11.5077 73.0164 11.7596C72.8096 12.2748 72.408 12.6865 71.8998 12.9042C71.3915 13.122 70.8182 13.128 70.3055 12.9211L56.5697 7.36062C56.0574 7.15268 55.6481 6.74881 55.4316 6.23768C55.215 5.72655 55.209 5.1499 55.4148 4.63431C55.5155 4.38212 55.5125 4.10008 55.4066 3.85008C55.3007 3.60007 55.1005 3.40254 54.85 3.30082L52.3736 2.29834C51.2257 1.8354 49.9422 1.84917 48.8045 2.33662C47.6667 2.82407 46.7677 3.74541 46.3044 4.89859L20.78 68.6722C20.3196 69.8265 20.3333 71.1174 20.818 72.2616C21.3027 73.4058 22.2188 74.3101 23.3654 74.7759L48.1427 84.8061C49.2905 85.269 50.574 85.2553 51.7117 84.7678C52.8495 84.2804 53.7486 83.359 54.2118 82.2058L79.7363 18.4322C80.1966 17.2779 80.1829 15.987 79.6982 14.8428C79.2136 13.6986 78.2974 12.7944 77.1508 12.3285Z" fill="white"/>
<path d="M67.5431 9.92691L59.794 6.78997C59.7206 6.76026 59.662 6.70244 59.631 6.62923C59.5999 6.55603 59.5991 6.47343 59.6287 6.39961C59.6582 6.32579 59.7157 6.2668 59.7885 6.23561C59.8613 6.20443 59.9434 6.2036 60.0168 6.23331L67.7659 9.37025C67.8023 9.38496 67.8354 9.40673 67.8633 9.43431C67.8913 9.46189 67.9136 9.49474 67.929 9.53099C67.9443 9.56724 67.9524 9.60618 67.9528 9.64558C67.9532 9.68497 67.9459 9.72407 67.9313 9.76062C67.9166 9.79717 67.895 9.83046 67.8676 9.8586C67.8402 9.88674 67.8075 9.90917 67.7714 9.92461C67.7354 9.94005 67.6967 9.94821 67.6575 9.9486C67.6183 9.949 67.5795 9.94163 67.5431 9.92691Z" fill="white"/>
<path d="M68.8722 10.3816C69.004 10.3816 69.1109 10.2741 69.1109 10.1416C69.1109 10.009 69.004 9.90155 68.8722 9.90155C68.7404 9.90155 68.6335 10.009 68.6335 10.1416C68.6335 10.2741 68.7404 10.3816 68.8722 10.3816Z" fill="white"/>
<path d="M73.9357 38.389C73.8037 38.3353 73.6982 38.2312 73.6424 38.0995C73.5866 37.9678 73.5851 37.8192 73.6381 37.6863L77.5593 27.889C77.6126 27.7563 77.7161 27.6503 77.847 27.5942C77.978 27.5382 78.1257 27.5368 78.2578 27.5902C78.3898 27.6437 78.4953 27.7476 78.5512 27.8793C78.607 28.0109 78.6086 28.1595 78.5556 28.2923L74.6344 38.0896C74.5811 38.2224 74.4776 38.3285 74.3466 38.3846C74.2156 38.4407 74.0679 38.4423 73.9357 38.389Z" fill="#3F3D56"/>
<path d="M39.9685 16.2295C39.8365 16.1758 39.731 16.0717 39.6752 15.94C39.6194 15.8083 39.6178 15.6597 39.6709 15.5268L40.5621 13.3001C40.5883 13.2342 40.6272 13.1742 40.6766 13.1234C40.7259 13.0726 40.7847 13.0321 40.8497 13.0043C40.9146 12.9764 40.9843 12.9616 41.0549 12.9609C41.1255 12.9602 41.1956 12.9734 41.2611 12.9999C41.3266 13.0265 41.3862 13.0657 41.4366 13.1154C41.487 13.1651 41.5272 13.2244 41.5548 13.2897C41.5824 13.355 41.5969 13.4252 41.5975 13.4962C41.5982 13.5672 41.5848 13.6376 41.5584 13.7035L40.6672 15.9301C40.6139 16.0629 40.5104 16.169 40.3794 16.2251C40.2484 16.2812 40.1006 16.2828 39.9685 16.2295Z" fill="#3F3D56"/>
<path d="M38.3198 20.3488C38.1878 20.2951 38.0823 20.1911 38.0265 20.0593C37.9707 19.9276 37.9691 19.779 38.0222 19.6461L38.9133 17.4194C38.9396 17.3535 38.9785 17.2934 39.0278 17.2427C39.0772 17.1919 39.136 17.1514 39.2009 17.1235C39.2659 17.0956 39.3356 17.0809 39.4062 17.0801C39.4768 17.0794 39.5469 17.0926 39.6124 17.1191C39.6779 17.1457 39.7376 17.1849 39.788 17.2346C39.8384 17.2844 39.8785 17.3436 39.9061 17.409C39.9337 17.4743 39.9483 17.5445 39.9489 17.6155C39.9495 17.6865 39.9361 17.7569 39.9097 17.8228L39.0185 20.0494C38.9652 20.1822 38.8617 20.2883 38.7307 20.3444C38.5997 20.4005 38.4519 20.4021 38.3198 20.3488Z" fill="#3F3D56"/>
<path d="M61.9948 29.8052L51.2762 25.4662C51.0566 25.3767 50.8811 25.2033 50.7882 24.9841C50.6953 24.7648 50.6925 24.5175 50.7805 24.2962L53.3529 17.8688C53.4419 17.6479 53.6143 17.4715 53.8323 17.3781C54.0503 17.2847 54.2962 17.2818 54.5162 17.3702L65.2347 21.7092C65.4543 21.7987 65.6297 21.972 65.7227 22.1913C65.8156 22.4105 65.8184 22.6578 65.7306 22.8791L63.1581 29.3065C63.069 29.5274 62.8967 29.7038 62.6787 29.7972C62.4607 29.8907 62.2148 29.8935 61.9948 29.8052ZM54.3355 17.8224C54.2347 17.7819 54.1219 17.7832 54.022 17.8261C53.9221 17.8689 53.8432 17.9498 53.8023 18.051L51.2301 24.4779C51.1898 24.5794 51.1911 24.6927 51.2337 24.7932C51.2763 24.8937 51.3567 24.9731 51.4574 25.0142L62.1751 29.3529C62.276 29.3934 62.3888 29.3921 62.4888 29.3493C62.5888 29.3064 62.6678 29.2255 62.7087 29.1243L65.2809 22.6974C65.3211 22.596 65.3198 22.4826 65.2772 22.3821C65.2346 22.2817 65.1542 22.2022 65.0536 22.1612L54.3355 17.8224Z" fill="#3F3D56"/>
<path d="M62.0583 25.7153L62.0577 25.715L53.7838 22.3656C53.6684 22.3186 53.5702 22.237 53.5026 22.1319C53.435 22.0268 53.4012 21.9033 53.4058 21.7782L53.562 17.8808C53.5659 17.7837 53.593 17.689 53.6408 17.6045C53.6887 17.5201 53.756 17.4484 53.8372 17.3956C53.9183 17.3428 54.0108 17.3103 54.107 17.3009C54.2032 17.2915 54.3003 17.3054 54.39 17.3416L65.3399 21.7525C65.4879 21.8122 65.6064 21.9283 65.6696 22.0756C65.7328 22.2228 65.7355 22.3892 65.6772 22.5384L65.713 22.5746L65.3697 22.9185L65.3696 22.9184L62.7095 25.5821C62.6259 25.6661 62.5196 25.7235 62.4038 25.7471C62.288 25.7708 62.1679 25.7597 62.0583 25.7153Z" fill="#3F3D56"/>
<path d="M55.8452 25.9987L52.1653 24.5091C52.0747 24.4723 52.0023 24.4009 51.964 24.3105C51.9258 24.2201 51.9248 24.1181 51.9613 24.0269C51.9977 23.9358 52.0687 23.8629 52.1586 23.8244C52.2485 23.7858 52.3499 23.7848 52.4406 23.8214L56.1204 25.3111C56.211 25.3478 56.2835 25.4192 56.3217 25.5097C56.36 25.6001 56.361 25.7021 56.3245 25.7932C56.288 25.8844 56.217 25.9572 56.1272 25.9958C56.0373 26.0343 55.9359 26.0354 55.8452 25.9987V25.9987Z" fill="#3F3D56"/>
<path d="M58.1235 24.7657C58.621 24.7657 59.0243 24.3601 59.0243 23.8597C59.0243 23.3594 58.621 22.9538 58.1235 22.9538C57.626 22.9538 57.2227 23.3594 57.2227 23.8597C57.2227 24.3601 57.626 24.7657 58.1235 24.7657Z" fill="white"/>
<path d="M46.0118 69.739L35.2933 65.4C35.0736 65.3105 34.8982 65.1372 34.8053 64.9179C34.7124 64.6987 34.7096 64.4513 34.7975 64.23L37.37 57.8026C37.459 57.5818 37.6313 57.4054 37.8493 57.3119C38.0673 57.2185 38.3132 57.2157 38.5333 57.304L49.2518 61.643C49.4714 61.7326 49.6468 61.9059 49.7397 62.1251C49.8326 62.3443 49.8355 62.5916 49.7476 62.8129L47.1751 69.2404C47.0861 69.4612 46.9137 69.6376 46.6958 69.7311C46.4778 69.8245 46.2319 69.8274 46.0118 69.739ZM38.3526 57.7562C38.2517 57.7158 38.139 57.7171 38.0391 57.7599C37.9392 57.8028 37.8602 57.8836 37.8194 57.9848L35.2471 64.4118C35.2069 64.5132 35.2082 64.6266 35.2508 64.727C35.2934 64.8275 35.3738 64.907 35.4744 64.948L46.1922 69.2867C46.2931 69.3272 46.4059 69.3259 46.5058 69.2831C46.6058 69.2403 46.6849 69.1594 46.7257 69.0581L49.298 62.6313C49.3382 62.5298 49.3369 62.4164 49.2943 62.316C49.2517 62.2155 49.1713 62.1361 49.0706 62.095L38.3526 57.7562Z" fill="#3F3D56"/>
<path d="M46.0754 65.6491L46.0748 65.6489L37.8008 62.2994C37.6855 62.2524 37.5873 62.1708 37.5197 62.0657C37.4521 61.9606 37.4183 61.8371 37.4229 61.712L37.5791 57.8147C37.583 57.7176 37.61 57.6228 37.6579 57.5384C37.7058 57.4539 37.7731 57.3823 37.8542 57.3294C37.9353 57.2766 38.0279 57.2441 38.1241 57.2347C38.2203 57.2253 38.3173 57.2393 38.407 57.2754L49.3569 61.6864C49.5049 61.746 49.6235 61.8622 49.6867 62.0094C49.7498 62.1566 49.7526 62.323 49.6942 62.4723L49.7301 62.5084L49.3867 62.8524L49.3867 62.8523L46.7266 65.516C46.643 65.5999 46.5367 65.6573 46.4209 65.681C46.3051 65.7047 46.185 65.6936 46.0754 65.6491Z" fill="#3F3D56"/>
<path d="M39.8623 65.9326L36.1824 64.4429C36.0918 64.4061 36.0194 64.3347 35.9811 64.2443C35.9428 64.1539 35.9418 64.0519 35.9783 63.9608C36.0148 63.8696 36.0858 63.7967 36.1757 63.7582C36.2655 63.7197 36.367 63.7186 36.4576 63.7552L40.1375 65.2449C40.1824 65.2631 40.2233 65.29 40.2578 65.324C40.2924 65.3581 40.32 65.3987 40.3389 65.4435C40.3579 65.4882 40.3679 65.5363 40.3684 65.585C40.3689 65.6337 40.3598 65.682 40.3418 65.7271C40.3237 65.7723 40.2969 65.8134 40.2631 65.8482C40.2292 65.8829 40.1888 65.9106 40.1443 65.9297C40.0998 65.9488 40.052 65.9589 40.0036 65.9593C39.9552 65.9598 39.9072 65.9507 39.8623 65.9326Z" fill="#3F3D56"/>
<path d="M42.1405 64.6995C42.638 64.6995 43.0413 64.2939 43.0413 63.7936C43.0413 63.2932 42.638 62.8876 42.1405 62.8876C41.643 62.8876 41.2397 63.2932 41.2397 63.7936C41.2397 64.2939 41.643 64.6995 42.1405 64.6995Z" fill="white"/>
<path d="M50.2581 53.4613C55.6997 53.4613 60.111 49.0248 60.111 43.5522C60.111 38.0796 55.6997 33.6432 50.2581 33.6432C44.8165 33.6432 40.4052 38.0796 40.4052 43.5522C40.4052 49.0248 44.8165 53.4613 50.2581 53.4613Z" fill="#1E73BE"/>
<path d="M53.9974 49.7697L43.2788 45.4307C43.0592 45.3412 42.8838 45.1679 42.7909 44.9486C42.698 44.7294 42.6952 44.482 42.7831 44.2607L45.3555 37.8333C45.4446 37.6125 45.6169 37.4361 45.8349 37.3426C46.0529 37.2492 46.2988 37.2464 46.5189 37.3347L57.2374 41.6737C57.4569 41.7633 57.6324 41.9366 57.7253 42.1558C57.8182 42.375 57.821 42.6223 57.7332 42.8436L55.1607 49.2711C55.0716 49.4919 54.8993 49.6683 54.6813 49.7618C54.4634 49.8552 54.2175 49.8581 53.9974 49.7697ZM46.3382 37.7869C46.2373 37.7465 46.1246 37.7478 46.0247 37.7906C45.9248 37.8335 45.8458 37.9143 45.805 38.0155L43.2327 44.4425C43.1924 44.5439 43.1938 44.6573 43.2364 44.7578C43.2789 44.8582 43.3594 44.9377 43.46 44.9787L54.1777 49.3174C54.2787 49.3579 54.3914 49.3566 54.4914 49.3138C54.5914 49.271 54.6704 49.1901 54.7113 49.0888L57.2835 42.662C57.3238 42.5605 57.3224 42.4471 57.2798 42.3467C57.2372 42.2462 57.1568 42.1668 57.0562 42.1257L46.3382 37.7869Z" fill="#3F3D56"/>
<path d="M54.061 45.6798L54.0604 45.6796L45.7864 42.3301C45.671 42.2831 45.5729 42.2015 45.5053 42.0964C45.4376 41.9913 45.4038 41.8678 45.4085 41.7427L45.5647 37.8454C45.5686 37.7483 45.5956 37.6535 45.6435 37.5691C45.6913 37.4846 45.7587 37.413 45.8398 37.3601C45.9209 37.3073 46.0135 37.2748 46.1097 37.2654C46.2058 37.256 46.3029 37.27 46.3926 37.3061L57.3425 41.7171C57.4905 41.7767 57.609 41.8929 57.6722 42.0401C57.7354 42.1873 57.7381 42.3537 57.6798 42.503L57.7156 42.5391L57.3723 42.8831L57.3723 42.883L54.7121 45.5467C54.6285 45.6306 54.5222 45.688 54.4064 45.7117C54.2907 45.7354 54.1705 45.7243 54.061 45.6798Z" fill="#3F3D56"/>
<path d="M47.8478 45.9633L44.168 44.4736C44.0773 44.4368 44.0049 44.3654 43.9667 44.275C43.9284 44.1846 43.9274 44.0826 43.9639 43.9915C44.0004 43.9003 44.0713 43.8274 44.1612 43.7889C44.2511 43.7504 44.3525 43.7493 44.4432 43.7859L48.1231 45.2756C48.2137 45.3124 48.2861 45.3838 48.3243 45.4742C48.3626 45.5646 48.3636 45.6666 48.3271 45.7578C48.2906 45.8489 48.2197 45.9218 48.1298 45.9603C48.0399 45.9988 47.9385 45.9999 47.8478 45.9633Z" fill="#3F3D56"/>
<path d="M23.6325 50.8056C23.6335 50.616 23.5931 50.4285 23.5143 50.2564C23.4354 50.0842 23.3199 49.9315 23.176 49.8091C23.0321 49.6866 22.8633 49.5974 22.6814 49.5477C22.4995 49.498 22.309 49.489 22.1233 49.5213L19.9048 45.4896L18.8003 47.6109L21.0764 51.1143C21.1511 51.4244 21.3363 51.6963 21.597 51.8783C21.8577 52.0603 22.1757 52.1398 22.4908 52.1018C22.8059 52.0637 23.0961 51.9107 23.3066 51.6718C23.517 51.4329 23.633 51.1247 23.6325 50.8056H23.6325Z" fill="#9E616A"/>
<path d="M22.1992 34.5205L19.9178 34.3596C19.9178 34.3596 19.6368 34.3211 18.864 35.5536C18.0912 36.7861 15.442 43.0361 15.442 43.0361L20.0832 49.8109L21.5906 48.3018L18.8957 42.8504L21.4787 39.2019L22.1992 34.5205Z" fill="#CACACA"/>
<path d="M47.3498 41.8447C47.1969 41.9033 47.0331 41.9275 46.8699 41.9156C46.7067 41.9037 46.5481 41.8559 46.4052 41.7757C46.2623 41.6955 46.1387 41.5847 46.043 41.4512C45.9473 41.3177 45.8819 41.1647 45.8513 41.003L41.916 40.4204L43.2931 38.8701L46.8191 39.6611C47.0925 39.6275 47.3688 39.6959 47.5954 39.8534C47.8221 40.011 47.9834 40.2466 48.0488 40.5158C48.1142 40.7849 48.0792 41.0689 47.9504 41.3138C47.8216 41.5587 47.6079 41.7476 47.3498 41.8447Z" fill="#9E616A"/>
<path d="M32.2227 85.1975H33.9044L34.7044 78.6741L32.2225 78.6742L32.2227 85.1975Z" fill="#9E616A"/>
<path d="M31.7938 84.6454L32.2671 84.6454L34.1151 83.8896L35.1056 84.6453H35.1057C35.6655 84.6453 36.2023 84.869 36.5981 85.267C36.9939 85.665 37.2162 86.2049 37.2163 86.7678V86.8368L31.7939 86.837L31.7938 84.6454Z" fill="#2F2E41"/>
<path d="M22.0786 85.1975H23.7603L24.5603 78.6741L22.0784 78.6742L22.0786 85.1975Z" fill="#9E616A"/>
<path d="M21.6497 84.6454L22.123 84.6454L23.971 83.8896L24.9615 84.6453H24.9616C25.5213 84.6453 26.0581 84.869 26.4539 85.267C26.8497 85.665 27.0721 86.2049 27.0721 86.7678V86.8368L21.6498 86.837L21.6497 84.6454Z" fill="#2F2E41"/>
<path d="M22.7273 53.0742L21.6158 59.8122L21.9895 81.4719H24.7251L28.928 58.5608L31.9513 81.0953L34.7018 80.9755L36.0745 58.2294L34.8411 52.4234L22.7273 53.0742Z" fill="#2F2E41"/>
<path d="M32.7785 33.0359L29.8506 32.6021L29.2281 30.9765L25.1032 30.9708L24.1763 33.0933L19.9612 34.3732L23.4534 46.4381C23.4534 46.4381 21.5288 50.9218 22.0022 50.941C22.4755 50.9602 22.7087 51.6409 22.3785 51.9986C22.0484 52.3563 21.3859 52.1288 21.7171 52.6721C21.9069 52.9661 22.034 53.2965 22.0904 53.6424C22.0904 53.6424 36.0573 56.6413 35.2836 52.7743C35.1874 52.2936 34.0204 45.6338 34.0204 45.6338C34.0204 45.6338 35.0366 44.5029 34.6023 44.0535C34.168 43.604 34.3973 38.8575 34.3973 38.8575L32.7785 33.0359Z" fill="#CACACA"/>
<path d="M32.2993 33.5631L32.7785 33.0359L39.2889 36.8751L44.7977 39.0847L44.9045 41.0177L37.7502 40.1585L32.6867 37.6685L32.2993 33.5631Z" fill="#CACACA"/>
<path d="M30.4891 26.3146C30.4891 26.7698 30.4 27.2205 30.2268 27.641C30.0536 28.0615 29.7997 28.4436 29.4797 28.7654C29.1597 29.0873 28.7798 29.3426 28.3616 29.5168C27.9435 29.6909 27.4954 29.7806 27.0428 29.7806C26.7714 29.7802 26.5009 29.7483 26.2367 29.6857C25.6073 29.5338 25.0331 29.2067 24.5799 28.7418C24.1266 28.277 23.8127 27.6932 23.674 27.0573C23.5352 26.4214 23.5773 25.7591 23.7954 25.1461C24.0135 24.5331 24.3988 23.9943 24.9072 23.5913C25.4156 23.1882 26.0265 22.9373 26.6701 22.8672C27.3136 22.797 27.9639 22.9105 28.5463 23.1947C29.1287 23.4788 29.6198 23.9222 29.9634 24.4739C30.307 25.0257 30.4892 25.6636 30.4891 26.3146V26.3146Z" fill="#9E616A"/>
<path d="M27.9659 29.1252L25.4906 29.6054C25.26 29.6681 25.0184 29.6781 24.7834 29.6349C24.4152 29.5374 24.1684 29.1957 23.9801 28.8629C23.1061 27.3043 22.8309 25.4775 23.2065 23.7285C23.2911 23.3425 23.4718 22.9001 23.857 22.8215C23.9689 22.7987 24.0955 22.8077 24.1841 22.7352C24.3145 22.6285 24.2716 22.4022 24.1435 22.2927C24.0042 22.1961 23.84 22.1425 23.6709 22.1382C23.7802 22.0091 23.9154 21.9047 24.0676 21.8318C24.2199 21.759 24.3857 21.7194 24.5543 21.7157L23.8922 21.3457C24.2111 21.1231 24.6396 21.1434 25.0158 21.2396C25.392 21.3357 25.7541 21.4986 26.1405 21.535C26.6258 21.5808 27.1045 21.4239 27.5882 21.3633C28.3098 21.2846 29.0387 21.4157 29.6885 21.741C30.3383 22.0662 30.8817 22.5721 31.2543 23.1985C31.3856 23.4074 31.4689 23.6433 31.4978 23.8887C31.5112 24.0115 31.4958 24.1356 31.4531 24.2514C31.4103 24.3671 31.3413 24.4712 31.2515 24.5554C30.9804 24.7847 30.5535 24.751 30.2909 24.9901C30.0885 25.1743 30.0381 25.4719 30.0267 25.7462C30.0153 26.0205 30.0282 26.3071 29.9113 26.5552C29.7945 26.8033 29.4894 26.9899 29.2455 26.8665C29.2348 26.5267 28.8453 26.2862 28.5145 26.3563C28.1838 26.4265 27.9395 26.729 27.8443 27.0552C27.7492 27.3815 27.7774 27.73 27.8188 28.0674C27.8603 28.4048 27.9142 28.7462 27.8677 29.083" fill="#2F2E41"/>
<path d="M49.7415 44.8308C50.239 44.8308 50.6423 44.4252 50.6423 43.9249C50.6423 43.4245 50.239 43.0189 49.7415 43.0189C49.244 43.0189 48.8407 43.4245 48.8407 43.9249C48.8407 44.4252 49.244 44.8308 49.7415 44.8308Z" fill="#1E73BE"/>
<path d="M69.2455 87H0.12714C0.093484 86.9999 0.0612386 86.9864 0.0374744 86.9624C0.0137103 86.9384 0.000366211 86.906 0.000366211 86.8721C0.000366211 86.8383 0.0137103 86.8058 0.0374744 86.7818C0.0612386 86.7579 0.093484 86.7444 0.12714 86.7443H69.2455C69.2792 86.7443 69.3116 86.7577 69.3354 86.7817C69.3592 86.8057 69.3726 86.8382 69.3726 86.8721C69.3726 86.906 69.3592 86.9386 69.3354 86.9625C69.3116 86.9865 69.2792 87 69.2455 87Z" fill="#CACACA"/>
</g>
<defs>
<clipPath id="clip0_540_1349">
<rect width="82" height="87" fill="white"/>
</clipPath>
</defs>
</svg>
