<svg width="68" height="64" viewBox="0 0 68 64" fill="none" xmlns="http://www.w3.org/2000/svg">
<path d="M66.1289 6.92578C64.8984 4.13672 62.6562 1.97657 59.8125 0.855473C56.9687 -0.265621 53.8516 -0.18359 51.0625 1.04688C49.75 1.6211 48.5742 2.44141 47.5625 3.45313C47.043 3.97266 47.043 4.84766 47.5625 5.36719C48.082 5.88672 48.957 5.88672 49.4766 5.36719C50.2422 4.60157 51.1445 3.97266 52.1562 3.53516C54.2891 2.60547 56.668 2.55078 58.8555 3.39844C61.043 4.2461 62.7383 5.88672 63.6953 8.01953C65.6367 12.4492 63.6133 17.6172 59.2109 19.5586C58.1992 19.9961 57.1328 20.2422 56.0391 20.2969C55.3008 20.3242 54.7266 20.9531 54.7539 21.6914C54.7812 22.4297 55.3828 23.0039 56.0937 23.0039C56.1211 23.0039 56.1211 23.0039 56.1484 23.0039C57.5703 22.9492 58.9648 22.6211 60.3047 22.0469C66.0195 19.4766 68.6719 12.6953 66.1289 6.92578Z" fill="#1E9754"/>
<path d="M38.0469 28.0898C39.3867 28.6094 40.8086 28.8828 42.2031 28.8828C43.7617 28.8828 45.3203 28.5547 46.7969 27.8984C49.5859 26.668 51.7461 24.4258 52.8672 21.582C53.9883 18.7383 53.9062 15.6211 52.6758 12.832C51.4453 10.043 49.2031 7.88282 46.3594 6.76172C43.5156 5.64063 40.3984 5.72266 37.6094 6.95313C34.8203 8.1836 32.6601 10.4258 31.5391 13.2695C30.418 16.1133 30.5 19.2305 31.7305 22.0195C32.9609 24.8359 35.2031 26.9688 38.0469 28.0898ZM34.0547 14.2539C34.9023 12.0664 36.543 10.3711 38.6758 9.41407C39.7969 8.92188 41 8.67579 42.1758 8.67579C43.2422 8.67579 44.3359 8.86719 45.3476 9.27735C47.5351 10.125 49.2305 11.7656 50.1875 13.8984C51.1172 16.0313 51.1719 18.4102 50.3242 20.5977C49.4766 22.7852 47.8359 24.4805 45.7031 25.4375C43.5703 26.3672 41.1914 26.4219 39.0039 25.5742C36.8164 24.7266 35.1211 23.0859 34.1641 20.9531C33.2617 18.793 33.207 16.4414 34.0547 14.2539Z" fill="#1E9754"/>
<path d="M21.8867 20.3789C22.0508 20.3789 22.2149 20.3516 22.3516 20.2969C23.9375 19.6953 25.5781 19.2578 27.2735 19.0117C28.0117 18.9023 28.5039 18.2187 28.3946 17.4805C28.2852 16.7422 27.6016 16.25 26.8633 16.3594C25.0039 16.6328 23.1719 17.125 21.3946 17.7812C20.711 18.0547 20.3555 18.8203 20.6016 19.5039C20.8203 20.0234 21.3399 20.3789 21.8867 20.3789Z" fill="#1E73BE"/>
<path d="M56.8867 33.2305C56.3398 31.1523 55.4101 29.1289 54.1523 27.2422C53.7422 26.6133 52.8945 26.4492 52.293 26.8594C51.6641 27.2695 51.5 28.1172 51.9102 28.7188C53.0039 30.3594 53.7969 32.1094 54.2891 33.9141C54.4258 34.4062 54.5351 34.8984 54.6172 35.3906C55.6289 41.0234 53.8242 46.9297 49.9414 50.8398C49.4766 51.332 49.1211 51.9336 48.9844 52.5352L46.4687 61.2305H40.8359L40.1797 58.6602C40.0156 58.0586 39.4961 57.6484 38.8672 57.6484L24.457 57.5938C23.8555 57.5938 23.3086 58.0039 23.1445 58.6055L22.4609 61.2305H16.8555L15.2422 55.543C14.9141 54.4219 14.0664 53.4102 13.0273 52.9727C9.60937 51.4141 6.57422 49.6094 3.94922 47.6406C3.73047 47.4766 3.59375 47.2031 3.59375 46.9023L3.62109 36.2656L5.07031 36.2383C5.48047 36.2383 5.86328 36.0195 6.13672 35.6914L11.9062 28.0352C11.9336 27.9805 11.9883 27.9258 12.0156 27.8711C12.3711 27.2422 12.125 26.6406 11.8516 26.0664C11.7969 25.9023 11.7148 25.7383 11.6602 25.5742L11.5508 25.3281C11.332 24.8086 11.0859 24.2891 10.8398 23.7969C10.4023 22.8672 9.91015 21.9375 9.41797 21.0352C9.36328 20.9258 9.30859 20.8438 9.25391 20.7344C9.33594 20.7344 9.41797 20.7344 9.52734 20.7344C9.55469 20.7344 9.58203 20.7344 9.63672 20.7344C11.0039 20.7344 12.2617 20.9258 13.4102 21.3359C13.7383 21.4453 14.4219 21.7734 14.5859 21.8555C14.5859 21.8555 14.6133 21.8555 14.6133 21.8828C14.8594 22.0195 16.3086 22.8672 16.6367 23.1133C18.0859 24.207 19.3164 25.6563 20.1367 27.3242C20.4648 27.9805 21.2852 28.2539 21.9414 27.9258C22.5977 27.5977 22.8711 26.7773 22.543 26.1211C21.5312 24.0977 20.0547 22.3203 18.25 20.9531C17.7852 20.5977 16.3633 19.7773 15.9805 19.5586C15.625 19.3125 15.1055 19.0664 14.2852 18.793C12.8906 18.3008 11.3867 18.0547 9.74609 18.0547C9.41797 18.0547 9.08984 18.0547 8.81641 18.082L8.29687 18.1094C8.21484 18.1094 8.21484 18.1094 8.13281 18.1367C8.07812 18.1367 8.02344 18.1641 7.96875 18.1641C7.25781 18.3281 6.65625 18.8203 6.35547 19.5313C6.08203 20.2422 6.38281 20.9258 6.49219 21.2266C6.57422 21.5 6.71094 21.7461 6.90234 22.0742C6.90234 22.1016 6.95703 22.1562 6.98437 22.1836L7.06641 22.3203C7.53125 23.1953 7.99609 24.0703 8.43359 24.9727C8.65234 25.4648 8.89844 25.9297 9.08984 26.3945L9.19922 26.668C9.25391 26.7773 9.30859 26.9141 9.33594 27.0234L4.41406 33.5586L2.28125 33.5859C1.54297 33.5859 0.96875 34.1875 0.96875 34.9258L0.914062 46.9297C0.914062 48.0781 1.43359 49.1445 2.33594 49.8281C5.09766 51.9336 8.32422 53.8203 11.9336 55.4883C12.2617 55.625 12.5625 55.9805 12.6445 56.3359L14.5586 62.9805C14.7227 63.5547 15.2422 63.9648 15.8437 63.9648H23.5273C24.1289 63.9648 24.6758 63.5547 24.8398 62.9531L25.5234 60.3281L37.8281 60.3828L38.4844 62.9531C38.6484 63.5547 39.168 63.9648 39.7969 63.9648H47.5078C48.1094 63.9648 48.6289 63.5547 48.793 62.9805L51.6094 53.2461C51.6641 53.082 51.7461 52.8906 51.8828 52.7539C56.3672 48.2695 58.4453 41.4336 57.2969 34.9531C57.1875 34.3789 57.0508 33.8047 56.8867 33.2305Z" fill="#1E73BE"/>
<path d="M16.5273 34.3242C16.5273 35.5 15.543 36.4844 14.3672 36.4844C13.1914 36.4844 12.207 35.5 12.207 34.3242C12.207 33.1484 13.1914 32.1641 14.3672 32.1641C15.543 32.1641 16.5273 33.1758 16.5273 34.3242Z" fill="#1E73BE"/>
</svg>
