<?xml version="1.0" encoding="utf-8"?>
<!-- Generator: Adobe Illustrator 19.2.0, SVG Export Plug-In . SVG Version: 6.00 Build 0)  -->
<svg version="1.1" id="Layer_1" xmlns="http://www.w3.org/2000/svg" xmlns:xlink="http://www.w3.org/1999/xlink" x="0px" y="0px"
	 viewBox="0 0 750 550" style="enable-background:new 0 0 750 550;" xml:space="preserve">
<style type="text/css">
	.st0{fill:url(#SVGID_1_);}
	.st1{opacity:0.3;fill:#80B2F1;}
	.st2{fill:#FFFFFF;}
	.st3{opacity:0.51;fill:#FFFFFF;}
	.st4{opacity:0.73;fill:#073799;}
	.st5{fill:none;stroke:#E4F3FE;stroke-width:1.4539;stroke-miterlimit:10;}
	.st6{fill:#073799;}
	.st7{fill:#DAE8F5;}
	.st8{fill:#EEF7FF;}
	.st9{fill:#9EA8FF;}
	.st10{fill:#4F7AC8;}
	.st11{fill:#3669B2;}
	.st12{opacity:0.43;fill:#4F7AC8;}
	.st13{fill:#80B2F1;}
	.st14{font-family:'Metropolis-Bold';}
	.st15{font-size:44.7901px;}
	.st16{fill:#506CC0;}
	.st17{fill:#85B6F1;}
	.st18{fill:#DBE8F1;}
	.st19{opacity:0.18;fill:#80B2F1;}
</style>
<linearGradient id="SVGID_1_" gradientUnits="userSpaceOnUse" x1="257.348" y1="-24.5694" x2="449.2358" y2="396.455">
	<stop  offset="0" style="stop-color:#FFFFFF"/>
	<stop  offset="8.413601e-002" style="stop-color:#FFFFFF;stop-opacity:0.9159"/>
	<stop  offset="1" style="stop-color:#FFFFFF;stop-opacity:0"/>
</linearGradient>
<path class="st0" d="M134.4,485.9c0,0-82.3-168.6-21.4-247.5c61.7-79.9,103.6-39.2,164.5-67.5c60.9-28.3,66.1-145.7,188.3-153.6
	c122.1-7.9,336.6,88.7,222.6,466.1L134.4,485.9z"/>
<g>
	<path class="st1" d="M641.4,491.4c0-10.7-103.8-19.4-231.8-19.4s-231.8,8.7-231.8,19.4c0,7,44.1,13.1,110.2,16.5
		c-1.3,0.9-1.9,1.9-1.9,2.9c0,10.7,77.8,19.4,173.8,19.4c96,0,173.8-8.7,173.8-19.4c0-3.5-8.5-6.8-23.3-9.7
		C630.2,498.2,641.4,494.9,641.4,491.4z"/>
	<path class="st2" d="M658.7,204.6v-7.4c0-3.9-3.2-7.1-7.1-7.1h-7.9c-2.6,0-4.8-1.8-5.4-4.3c-1.4-5.9-3.7-11.4-6.7-16.5
		c-1.3-2.2-0.9-5,0.9-6.8l5.1-5.1c2.8-2.8,2.8-7.2,0-10l-5.3-5.3c-2.8-2.8-7.2-2.8-10,0l-4.9,4.9c-1.8,1.8-4.7,2.2-6.9,0.8
		c-5.2-3.2-10.9-5.6-17-7.1c-2.5-0.6-4.2-2.9-4.2-5.4v-6.4c0-3.9-3.2-7.1-7.1-7.1h-7.4c-3.9,0-7.1,3.2-7.1,7.1v6.4
		c0,2.6-1.8,4.8-4.3,5.4c-6.1,1.5-11.9,4-17.1,7.2c-2.2,1.4-5.1,1.1-6.9-0.8l-4.3-4.3c-2.8-2.8-7.2-2.8-10,0l-5.3,5.3
		c-2.8,2.8-2.8,7.2,0,10l7.8,7.8c-4.2,6.2-7.3,13.3-9,20.8c-0.6,2.6-2.8,4.4-5.5,4.4h-6.6c-3.9,0-7.1,3.2-7.1,7.1v7.4
		c0,3.9,3.2,7.1,7.1,7.1h7.3c2.5,0,4.7,1.7,5.4,4.1c1.6,5.8,4.1,11.3,7.3,16.4c1.4,2.2,1.1,5.1-0.8,7l-5.3,5.3
		c-2.8,2.8-2.8,7.2,0,10l5.3,5.3c2.8,2.8,7.2,2.8,10,0l5.9-5.9c1.8-1.8,4.5-2.1,6.7-0.9c5,2.8,10.4,4.9,16.1,6.3
		c2.5,0.6,4.3,2.8,4.3,5.5v8.3c0,3.9,3.2,7.1,7.1,7.1h7.4c3.9,0,7.1-3.2,7.1-7.1v-8.8c0-2.5,1.7-4.7,4.2-5.4
		c5.6-1.5,10.8-3.8,15.6-6.6c2.2-1.3,5-1,6.9,0.8l6,6c2.8,2.8,7.2,2.8,10,0l5.3-5.3c2.8-2.8,2.8-7.2,0-10l-6.1-6.1
		c-1.8-1.8-2.2-4.6-0.8-6.8c2.9-4.9,5.2-10.2,6.6-15.9c0.6-2.5,2.9-4.2,5.4-4.2h8.1C655.6,211.6,658.7,208.5,658.7,204.6z
		 M582.5,238.2c-24.1,2.4-44.2-17.7-41.8-41.8c1.8-17.8,16.2-32.2,34-34c24.1-2.4,44.2,17.7,41.8,41.8
		C614.7,222,600.3,236.4,582.5,238.2z"/>
	<path class="st3" d="M259.9,308v-5.3c0-2.8-2.2-5-5-5h-5.6c-1.8,0-3.4-1.3-3.8-3c-1-4.1-2.6-8.1-4.7-11.7c-0.9-1.6-0.7-3.5,0.6-4.8
		l3.6-3.6c2-2,2-5.1,0-7.1l-3.7-3.7c-2-2-5.1-2-7.1,0l-3.5,3.5c-1.3,1.3-3.3,1.5-4.9,0.6c-3.7-2.2-7.7-4-12-5c-1.8-0.4-3-2-3-3.8
		v-4.5c0-2.8-2.2-5-5-5h-5.3c-2.8,0-5,2.2-5,5v4.5c0,1.8-1.2,3.4-3,3.8c-4.3,1.1-8.4,2.8-12.1,5.1c-1.6,1-3.6,0.8-4.9-0.6l-3.1-3.1
		c-2-2-5.1-2-7.1,0l-3.7,3.7c-2,2-2,5.1,0,7.1l5.5,5.5c-3,4.4-5.2,9.4-6.4,14.7c-0.4,1.8-2,3.1-3.9,3.1h-4.6c-2.8,0-5,2.2-5,5v5.3
		c0,2.8,2.2,5,5,5h5.2c1.8,0,3.3,1.2,3.8,2.9c1.1,4.1,2.9,8,5.1,11.6c1,1.6,0.8,3.6-0.5,4.9l-3.7,3.7c-2,2-2,5.1,0,7.1l3.7,3.7
		c2,2,5.1,2,7.1,0l4.1-4.1c1.3-1.3,3.2-1.5,4.8-0.6c3.5,2,7.3,3.5,11.4,4.4c1.8,0.4,3.1,2,3.1,3.9v5.8c0,2.8,2.2,5,5,5h5.3
		c2.8,0,5-2.2,5-5v-6.2c0-1.8,1.2-3.4,2.9-3.8c3.9-1.1,7.6-2.7,11-4.7c1.6-0.9,3.6-0.7,4.9,0.6l4.3,4.3c2,2,5.1,2,7.1,0l3.7-3.7
		c2-2,2-5.1,0-7.1l-4.3-4.3c-1.3-1.3-1.5-3.3-0.6-4.8c2.1-3.5,3.6-7.2,4.7-11.2c0.5-1.7,2-3,3.8-3h5.8
		C257.6,313,259.9,310.8,259.9,308z M206,331.8c-17,1.7-31.2-12.5-29.5-29.5c1.2-12.6,11.4-22.8,24-24c17-1.7,31.2,12.5,29.5,29.5
		C228.8,320.4,218.6,330.6,206,331.8z"/>
	<path class="st4" d="M726.6,308.7l1-4.7c0.5-2.5-1.1-4.9-3.5-5.4l-5-1c-1.6-0.3-2.8-1.8-2.9-3.4c-0.1-3.9-0.8-7.7-2-11.3
		c-0.5-1.6,0.1-3.3,1.4-4.2l3.9-2.6c2.1-1.4,2.7-4.2,1.3-6.3l-2.6-4c-1.4-2.1-4.2-2.7-6.3-1.3l-3.8,2.5c-1.4,0.9-3.2,0.7-4.4-0.4
		c-2.9-2.7-6.1-5-9.8-6.7c-1.5-0.7-2.3-2.4-2-4l0.8-4c0.5-2.5-1.1-4.9-3.5-5.4l-4.7-1c-2.5-0.5-4.9,1.1-5.4,3.5l-0.8,4
		c-0.3,1.6-1.7,2.8-3.4,2.9c-4.1,0.2-8,1-11.8,2.3c-1.6,0.6-3.4,0-4.3-1.4l-2.2-3.3c-1.4-2.1-4.2-2.7-6.3-1.3l-4,2.6
		c-2.1,1.4-2.7,4.2-1.3,6.3l3.9,5.9c-3.5,3.4-6.4,7.4-8.4,11.9c-0.7,1.5-2.4,2.4-4,2l-4.1-0.9c-2.5-0.5-4.9,1.1-5.4,3.5l-1,4.7
		c-0.5,2.5,1.1,4.9,3.5,5.4l4.6,1c1.6,0.3,2.8,1.7,2.9,3.3c0.3,3.9,1.1,7.7,2.4,11.3c0.6,1.6,0,3.4-1.4,4.3l-4,2.6
		c-2.1,1.4-2.7,4.2-1.3,6.3l2.6,4c1.4,2.1,4.2,2.7,6.3,1.3l4.5-2.9c1.4-0.9,3.1-0.8,4.4,0.3c2.8,2.4,5.9,4.5,9.3,6.1
		c1.5,0.7,2.4,2.4,2,4l-1.1,5.2c-0.5,2.5,1.1,4.9,3.5,5.4l4.7,1c2.5,0.5,4.9-1.1,5.4-3.5l1.2-5.5c0.3-1.6,1.7-2.8,3.3-2.9
		c3.7-0.2,7.3-0.9,10.7-2.1c1.6-0.5,3.3,0,4.2,1.4l3,4.6c1.4,2.1,4.2,2.7,6.3,1.3l4-2.6c2.1-1.4,2.7-4.2,1.3-6.3l-3-4.7
		c-0.9-1.4-0.7-3.2,0.4-4.4c2.5-2.7,4.6-5.8,6.3-9.1c0.7-1.5,2.4-2.3,4-1.9l5.1,1.1C723.7,312.7,726.1,311.2,726.6,308.7z
		 M674.1,319.9c-15.5-1.7-25.5-17-20.8-31.8c3.5-11,14.4-18.2,25.9-17c15.5,1.7,25.5,17,20.8,31.8
		C696.6,313.9,685.6,321.1,674.1,319.9z"/>
	<path class="st5" d="M594.8,70.8c0.5-1.8,0.7-3.7,0.7-5.6c0-12-9.8-21.8-21.8-21.8c-8.8,0-16.4,5.3-19.9,12.8
		c-2.8-2-6.3-3.2-10.1-3.2c-9.5,0-17.3,7.7-17.4,17.2c-6.4,2-11.1,8-11.1,15.1c0,8.8,7.1,15.9,15.9,15.9h57.2
		c8.8,0,15.9-7.1,15.9-15.9C604.2,78.8,600.4,73.3,594.8,70.8z"/>
	<path class="st5" d="M192.5,419.8c0.5-1.8,0.7-3.7,0.7-5.6c0-12-9.8-21.8-21.8-21.8c-8.8,0-16.4,5.3-19.9,12.8
		c-2.8-2-6.3-3.2-10.1-3.2c-9.5,0-17.3,7.7-17.4,17.2c-6.4,2-11.1,8-11.1,15.1c0,8.8,7.1,15.9,15.9,15.9h57.2
		c8.8,0,15.9-7.1,15.9-15.9C201.9,427.8,198.1,422.3,192.5,419.8z"/>
</g>
<g>
	<g>
		<path class="st6" d="M582,432.1H220V203.5c0-1.8,1.5-3.2,3.2-3.2h355.5c1.8,0,3.2,1.5,3.2,3.2V432.1z"/>
		<g>
			<path class="st7" d="M562,414.1h-322c-1.8,0-3.2-1.5-3.2-3.2V217.8c0-1.8,1.5-3.2,3.2-3.2h322c1.8,0,3.2,1.5,3.2,3.2v193.1
				C565.2,412.7,563.8,414.1,562,414.1z"/>
		</g>
		<path class="st8" d="M309.7,414.1h-68.4c-2.5,0-4.6-2.1-4.6-4.6V219.1c0-2.5,2.1-4.6,4.6-4.6h311.9"/>
		<circle class="st9" cx="401" cy="207.2" r="2.3"/>
		<g>
			<g>
				<rect x="267.4" y="240.4" class="st6" width="119.7" height="6.1"/>
				<rect x="267.4" y="272.9" class="st6" width="119.7" height="6.1"/>
				<rect x="267.4" y="251.2" class="st6" width="69.8" height="6.1"/>
				<g>
					<rect x="267.4" y="262" class="st6" width="134.1" height="6.1"/>
					<rect x="403.7" y="262" class="st6" width="21.7" height="6.1"/>
					<rect x="428.8" y="262" class="st6" width="11.7" height="6.1"/>
				</g>
				<g>
					<rect x="267.4" y="283.7" class="st6" width="76.4" height="6.1"/>
					<rect x="345.1" y="283.7" class="st6" width="12.3" height="6.1"/>
					<rect x="359.4" y="283.7" class="st6" width="6.7" height="6.1"/>
				</g>
			</g>
			<g>
				<rect x="267.1" y="367.4" class="st6" width="44" height="6.1"/>
				<rect x="267.1" y="378.2" class="st6" width="25.7" height="6.1"/>
			</g>
			<g>
				
					<rect x="462.4" y="367.9" transform="matrix(-1 -1.224647e-016 1.224647e-016 -1 1006.978 741.9736)" class="st6" width="82.2" height="6.1"/>
				
					<rect x="496.7" y="378.8" transform="matrix(-1 -1.224647e-016 1.224647e-016 -1 1041.2312 763.6123)" class="st6" width="47.9" height="6.1"/>
				<g>
					
						<rect x="452.6" y="389.6" transform="matrix(-1 -1.224647e-016 1.224647e-016 -1 997.1541 785.2507)" class="st6" width="92" height="6.1"/>
					
						<rect x="436.2" y="389.6" transform="matrix(-1 -1.224647e-016 1.224647e-016 -1 887.2457 785.2507)" class="st6" width="14.9" height="6.1"/>
					
						<rect x="425.8" y="389.6" transform="matrix(-1 -1.224647e-016 1.224647e-016 -1 859.6149 785.2507)" class="st6" width="8" height="6.1"/>
				</g>
			</g>
			<rect x="267.4" y="296.4" class="st6" width="1.6" height="65.1"/>
		</g>
	</g>
	<path class="st10" d="M229.9,458.2H572c5.5,0,9.9-4.4,9.9-9.9v-16.2H220v16.2C220,453.8,224.4,458.2,229.9,458.2z"/>
	<polygon class="st11" points="465.8,485.9 336.2,485.9 351.9,458.2 450.1,458.2 	"/>
	<path class="st10" d="M487.7,493.4H314.3v-4.7c0-2.9,2.4-5.3,5.3-5.3h162.8c2.9,0,5.3,2.4,5.3,5.3V493.4z"/>
	<polygon class="st12" points="351.9,458.2 344,472 457.9,472 450.1,458.2 	"/>
</g>
<g>
	<g>
		<path class="st10" d="M637.2,359.4H526.7c-1.5,0-2.6-1.2-2.6-2.6V254.6c0-1.5,1.2-2.6,2.6-2.6h110.6c1.5,0,2.6,1.2,2.6,2.6v102.2
			C639.9,358.2,638.7,359.4,637.2,359.4z"/>
		<path class="st2" d="M632.9,352H531c-1.1,0-1.9-0.9-1.9-1.9v-80.6c0-1.1,0.9-1.9,1.9-1.9h101.8c1.1,0,1.9,0.9,1.9,1.9v80.6
			C634.8,351.2,633.9,352,632.9,352z"/>
		<text transform="matrix(1 0 0 1 545.1931 323.6248)" class="st13 st14 st15">&lt;/&gt;</text>
		<g>
			<circle class="st13" cx="534" cy="259.8" r="3"/>
			<circle class="st13" cx="544.2" cy="259.8" r="3"/>
			<circle class="st13" cx="554.4" cy="259.8" r="3"/>
		</g>
	</g>
	<g>
		<path class="st16" d="M492.8,184.6H367.7c-1.5,0-2.6-1.2-2.6-2.6V79.8c0-1.5,1.2-2.6,2.6-2.6h125.1c1.5,0,2.6,1.2,2.6,2.6V182
			C495.5,183.5,494.3,184.6,492.8,184.6z"/>
		<path class="st2" d="M488.5,177.2H372.1c-1.1,0-1.9-0.9-1.9-1.9V94.7c0-1.1,0.9-1.9,1.9-1.9h116.4c1.1,0,1.9,0.9,1.9,1.9v80.6
			C490.4,176.4,489.5,177.2,488.5,177.2z"/>
		<text transform="matrix(1 0 0 1 380.4392 148.8523)" class="st17 st14 st15">CMS</text>
		<g>
			<circle class="st8" cx="375" cy="85" r="3"/>
			<circle class="st8" cx="385.3" cy="85" r="3"/>
			<circle class="st8" cx="395.5" cy="85" r="3"/>
		</g>
	</g>
	<g>
		<g>
			<path class="st2" d="M656.3,458.3h-60.7c-3.2,0-5.9-2.9-5.9-6.5v-78.9c0-3.6,2.6-6.5,5.9-6.5h52l14.6,18.5v66.9
				C662.2,455.3,659.6,458.3,656.3,458.3z"/>
			<path class="st18" d="M647.6,366.4v13.8c0,2.7,1.9,4.8,4.3,4.8l10.2-0.1L647.6,366.4z"/>
		</g>
		<g>
			<rect x="604.3" y="392.6" class="st19" width="43.4" height="3.8"/>
			<rect x="604.3" y="401.5" class="st19" width="43.4" height="3.8"/>
			<rect x="604.3" y="410.4" class="st19" width="43.4" height="3.8"/>
			<rect x="604.3" y="419.4" class="st19" width="43.4" height="3.8"/>
			<rect x="604.3" y="428.3" class="st19" width="43.4" height="3.8"/>
		</g>
	</g>
	<path class="st10" d="M292.5,184.2c4.3-9.3,2.6-20.1-3.7-28.6c-0.8-1.1-2.6-1-3.3,0.2l-8.1,15c-2.2,4-7.1,5.7-11.3,3.8l-8.5-4
		c-4.2-1.9-6.1-6.8-4.4-11l6.3-15.9c0.5-1.3-0.5-2.7-1.9-2.6c-10.5,0.7-19.9,6.3-24.2,15.7c-5.7,12.2-0.9,26.9,10.7,35.7
		c0.7,0.6,0.9,1.6,0.5,2.4l-52,105.2c-2.2,4.6-0.2,10.2,4.5,12.4l0,0c4.7,2.2,10.2,0.1,12.3-4.6l46.7-107.6c0.4-0.8,1.3-1.3,2.2-1.1
		C272.5,202.3,286.8,196.5,292.5,184.2z M200.2,305.8c-2.1-1-3-3.5-2-5.6c1-2.1,6.3-9.1,8.4-8.1c2.1,1,0.2,9.6-0.8,11.7
		C204.8,305.8,202.3,306.7,200.2,305.8z"/>
	<g>
		<g>
			<path class="st10" d="M201,216.7h-64c-1.5,0-2.6-1.2-2.6-2.6v-58.9c0-1.5,1.2-2.6,2.6-2.6h64c1.5,0,2.6,1.2,2.6,2.6v58.9
				C203.6,215.6,202.4,216.7,201,216.7z"/>
			<path class="st6" d="M198.7,212.3h-59.3c-1.1,0-1.9-0.9-1.9-1.9v-46.7c0-1.1,0.9-1.9,1.9-1.9h59.3c1.1,0,1.9,0.9,1.9,1.9v46.7
				C200.6,211.5,199.7,212.3,198.7,212.3z"/>
			<g>
				<circle class="st13" cx="140.3" cy="157.2" r="1.8"/>
				<circle class="st13" cx="146.4" cy="157.2" r="1.8"/>
				<circle class="st13" cx="152.6" cy="157.2" r="1.8"/>
			</g>
		</g>
		<circle class="st2" cx="169.2" cy="176.4" r="9.1"/>
		<path class="st2" d="M186.1,212.3h-33.8v-6.4c0-9.3,7.6-16.9,16.9-16.9l0,0c9.3,0,16.9,7.6,16.9,16.9V212.3z"/>
	</g>
	<g>
		<g>
			<path class="st8" d="M336.8,83.3h-88c-4.9,0-8.8-3.9-8.8-8.8l0,0c0-4.9,3.9-8.8,8.8-8.8h88c4.9,0,8.8,3.9,8.8,8.8l0,0
				C345.6,79.4,341.6,83.3,336.8,83.3z"/>
			<path class="st10" d="M252.8,83.3h-4c-4.9,0-8.8-3.9-8.8-8.8l0,0c0-4.9,3.9-8.8,8.8-8.8h4c4.9,0,8.8,3.9,8.8,8.8l0,0
				C261.6,79.4,257.7,83.3,252.8,83.3z"/>
			<path class="st8" d="M336.8,106.8h-88c-4.9,0-8.8-3.9-8.8-8.8l0,0c0-4.9,3.9-8.8,8.8-8.8h88c4.9,0,8.8,3.9,8.8,8.8l0,0
				C345.6,102.9,341.6,106.8,336.8,106.8z"/>
			<path class="st10" d="M252.8,106.8h-4c-4.9,0-8.8-3.9-8.8-8.8l0,0c0-4.9,3.9-8.8,8.8-8.8h4c4.9,0,8.8,3.9,8.8,8.8l0,0
				C261.6,102.9,257.7,106.8,252.8,106.8z"/>
			<path class="st8" d="M336.8,130.4h-88c-4.9,0-8.8-3.9-8.8-8.8l0,0c0-4.9,3.9-8.8,8.8-8.8h88c4.9,0,8.8,3.9,8.8,8.8l0,0
				C345.6,126.4,341.6,130.4,336.8,130.4z"/>
			<path class="st10" d="M252.8,130.4h-4c-4.9,0-8.8-3.9-8.8-8.8l0,0c0-4.9,3.9-8.8,8.8-8.8h4c4.9,0,8.8,3.9,8.8,8.8l0,0
				C261.6,126.4,257.7,130.4,252.8,130.4z"/>
		</g>
		<g>
			<rect x="267.4" y="72.2" class="st7" width="67" height="5"/>
			<rect x="267.4" y="95.5" class="st7" width="67" height="5"/>
			<rect x="267.4" y="118.8" class="st7" width="67" height="5"/>
		</g>
	</g>
</g>
</svg>
